<svg width="121" height="42" viewBox="0 0 121 42" fill="none" xmlns="http://www.w3.org/2000/svg">
<g clip-path="url(#clip0_3511_62)">
<path d="M21 42C32.598 42 42 32.598 42 21C42 9.40202 32.598 0 21 0C9.40202 0 0 9.40202 0 21C0 32.598 9.40202 42 21 42Z" fill="#A6A001"/>
<path d="M26.9092 28H24.6152L23.4814 24.792H18.5244L17.4346 28H15.1494L19.8691 15.3965H22.2246L26.9092 28ZM22.9277 23.0869L21.1787 18.0596C21.126 17.8955 21.0703 17.6318 21.0117 17.2686H20.9766C20.9238 17.6025 20.8652 17.8662 20.8008 18.0596L19.0693 23.0869H22.9277ZM30.4951 26.6992H30.46V28H28.4209V14.6758H30.46V20.582H30.4951C31.1924 19.3867 32.2119 18.7891 33.5537 18.7891C34.6904 18.7891 35.5781 19.1934 36.2168 20.002C36.8613 20.8047 37.1836 21.8828 37.1836 23.2363C37.1836 24.7422 36.8232 25.9492 36.1025 26.8574C35.3818 27.7598 34.3975 28.2109 33.1494 28.2109C31.9775 28.2109 31.0928 27.707 30.4951 26.6992ZM30.4424 23.1221V24.2383C30.4424 24.8945 30.6504 25.4512 31.0664 25.9082C31.4883 26.3652 32.0215 26.5938 32.666 26.5938C33.4219 26.5938 34.0137 26.3008 34.4414 25.7148C34.875 25.123 35.0918 24.2998 35.0918 23.2451C35.0918 22.3604 34.8896 21.6689 34.4854 21.1709C34.0869 20.667 33.5449 20.415 32.8594 20.415C32.1328 20.415 31.5469 20.6729 31.1016 21.1885C30.6621 21.7041 30.4424 22.3486 30.4424 23.1221ZM43.2568 28.2109C41.8682 28.2109 40.7578 27.792 39.9258 26.9541C39.0996 26.1104 38.6865 24.9941 38.6865 23.6055C38.6865 22.0938 39.1172 20.9131 39.9785 20.0635C40.8457 19.2139 42.0117 18.7891 43.4766 18.7891C44.8828 18.7891 45.9785 19.2021 46.7637 20.0283C47.5488 20.8545 47.9414 22 47.9414 23.4648C47.9414 24.9004 47.5166 26.0518 46.667 26.9189C45.8232 27.7803 44.6865 28.2109 43.2568 28.2109ZM43.3535 20.415C42.5566 20.415 41.9268 20.6934 41.4639 21.25C41.001 21.8066 40.7695 22.5742 40.7695 23.5527C40.7695 24.4961 41.0039 25.2402 41.4727 25.7852C41.9414 26.3242 42.5684 26.5938 43.3535 26.5938C44.1562 26.5938 44.7715 26.3271 45.1992 25.7939C45.6328 25.2607 45.8496 24.502 45.8496 23.5176C45.8496 22.5273 45.6328 21.7627 45.1992 21.2236C44.7715 20.6846 44.1562 20.415 43.3535 20.415ZM57.873 28H55.834V26.5762H55.7988C55.207 27.666 54.2871 28.2109 53.0391 28.2109C50.9121 28.2109 49.8486 26.9336 49.8486 24.3789V19H51.8877V24.168C51.8877 25.7852 52.5117 26.5938 53.7598 26.5938C54.3633 26.5938 54.8584 26.3711 55.2451 25.9258C55.6377 25.4805 55.834 24.8975 55.834 24.1768V19H57.873V28ZM65.2822 27.9033C64.8838 28.1025 64.3594 28.2021 63.709 28.2021C61.9629 28.2021 61.0898 27.3643 61.0898 25.6885V20.5996H59.5869V19H61.0898V16.917L63.1289 16.3369V19H65.2822V20.5996H63.1289V25.0996C63.1289 25.6328 63.2256 26.0137 63.4189 26.2422C63.6123 26.4707 63.9346 26.585 64.3857 26.585C64.7314 26.585 65.0303 26.4854 65.2822 26.2861V27.9033ZM85.7607 28H83.6865V19.8438C83.6865 19.1758 83.7275 18.3584 83.8096 17.3916H83.7744C83.6455 17.9424 83.5312 18.3379 83.4316 18.5781L79.6699 28H78.2285L74.458 18.6484C74.3525 18.373 74.2412 17.9541 74.124 17.3916H74.0889C74.1357 17.8955 74.1592 18.7188 74.1592 19.8613V28H72.2256V15.3965H75.1699L78.4834 23.79C78.7354 24.4346 78.8994 24.915 78.9756 25.2314H79.0195C79.2363 24.5693 79.4121 24.0771 79.5469 23.7549L82.9219 15.3965H85.7607V28ZM96.2637 24.0537H90.1289C90.1523 24.8857 90.4072 25.5273 90.8936 25.9785C91.3857 26.4297 92.0596 26.6553 92.915 26.6553C93.876 26.6553 94.7578 26.3682 95.5605 25.7939V27.4375C94.7402 27.9531 93.6562 28.2109 92.3086 28.2109C90.9844 28.2109 89.9443 27.8037 89.1885 26.9893C88.4385 26.1689 88.0635 25.0176 88.0635 23.5352C88.0635 22.1348 88.4766 20.9951 89.3027 20.1162C90.1348 19.2314 91.166 18.7891 92.3965 18.7891C93.627 18.7891 94.5791 19.1846 95.2529 19.9756C95.9268 20.7666 96.2637 21.8652 96.2637 23.2715V24.0537ZM94.2949 22.6123C94.2891 21.8799 94.1162 21.3115 93.7764 20.9072C93.4365 20.4971 92.9678 20.292 92.3701 20.292C91.7842 20.292 91.2861 20.5059 90.876 20.9336C90.4717 21.3613 90.2227 21.9209 90.1289 22.6123H94.2949Z" fill="white"/>
<path fill-rule="evenodd" clip-rule="evenodd" d="M114.499 14.8218L120.677 21.0001L114.499 27.1784L113.32 26.0001L118.32 21.0001L113.32 16.0001L114.499 14.8218Z" fill="white"/>
</g>
<defs>
<clipPath id="clip0_3511_62">
<rect width="120.677" height="42" fill="white"/>
</clipPath>
</defs>
</svg>
