<svg width="142" height="31" viewBox="0 0 142 31" fill="none" xmlns="http://www.w3.org/2000/svg">
<g clip-path="url(#clip0_3566_18)">
<path d="M0.0400009 26.16V5.04002C0.0400009 2.12002 1.56 1.20002 3.88 1.20002H12.6C17.4 1.20002 23.12 2.28002 23.12 8.64002C23.12 11.08 21.8 13.4 19.08 14.48V14.56C22.12 15.36 24.12 17.52 24.12 21.48C24.12 27.52 19.2 30 13.52 30H3.88C1.56 30 0.0400009 29.08 0.0400009 26.16ZM6.6 17.2V24.96H12.12C14.68 24.96 17.56 24.44 17.56 21.12C17.56 17.64 14.52 17.2 11.32 17.2H6.6ZM6.6 6.00002V13.04H12C15.08 13.04 16.56 11.8 16.56 9.52002C16.56 6.76002 14.24 6.00002 11.8 6.00002H6.6ZM28.9072 26.16V3.96002C28.9072 2.00002 30.1872 0.680019 32.1872 0.680019C34.1872 0.680019 35.4672 2.00002 35.4672 3.96002V24.48H46.4272C48.3072 24.48 49.8272 25.44 49.8272 27.24C49.8272 29.04 48.3072 30 46.4272 30H32.7472C30.4272 30 28.9072 29.08 28.9072 26.16ZM52.0803 15.24C52.0803 6.80002 57.2003 0.52002 66.6403 0.52002C76.0803 0.52002 81.2003 6.80002 81.2003 15.24C81.2003 23.36 76.4803 30.68 66.6403 30.68C56.3203 30.68 52.0803 23.96 52.0803 15.24ZM58.6403 15.24C58.6403 20.76 60.4803 25.4 66.6403 25.4C72.6003 25.4 74.6403 20.76 74.6403 15.24C74.6403 9.72002 72.0003 5.80002 66.6403 5.80002C61.2803 5.80002 58.6403 9.72002 58.6403 15.24ZM112.737 17.48V28.32C112.737 29.52 111.817 30.52 110.497 30.52C108.617 30.52 108.097 29.36 107.697 26.8C105.817 29.16 103.217 30.68 99.1366 30.68C88.9766 30.68 85.0966 23.68 85.0966 15.6C85.0966 5.88002 91.1766 0.52002 100.097 0.52002C107.377 0.52002 111.257 4.88002 111.257 7.44002C111.257 9.72002 109.577 10.32 108.177 10.32C104.937 10.32 106.137 5.80002 99.7366 5.80002C95.2166 5.80002 91.6566 8.76002 91.6566 16.04C91.6566 21.72 94.4566 25.64 99.8166 25.64C103.297 25.64 106.337 23.28 106.657 19.76H102.377C100.977 19.76 99.4166 19.24 99.4166 17.24C99.4166 15.64 100.337 14.72 101.977 14.72H110.057C111.977 14.72 112.737 15.68 112.737 17.48ZM128.234 12.08L133.714 13.32C139.714 14.68 141.234 18.24 141.234 21.6C141.234 26.8 137.314 30.68 129.394 30.68C121.074 30.68 117.354 26.52 117.354 23.4C117.354 21.8 118.514 20.68 120.114 20.68C123.674 20.68 122.754 25.88 129.394 25.88C132.794 25.88 134.674 24 134.674 22.08C134.674 20.92 134.114 19.64 131.874 19.08L124.474 17.2C118.514 15.68 117.434 12.4 117.434 9.32002C117.434 2.92002 123.354 0.52002 128.914 0.52002C134.034 0.52002 140.074 3.40002 140.074 7.24002C140.074 8.88002 138.674 9.84002 137.074 9.84002C134.034 9.84002 134.594 5.56002 128.474 5.56002C125.434 5.56002 123.754 6.96002 123.754 8.96002C123.754 10.96 126.154 11.6 128.234 12.08Z" fill="#A6A001"/>
</g>
<defs>
<clipPath id="clip0_3566_18">
<rect width="142" height="31" fill="white"/>
</clipPath>
</defs>
</svg>
