<svg width="136" height="42" viewBox="0 0 136 42" fill="none" xmlns="http://www.w3.org/2000/svg">
<path d="M21 42C32.598 42 42 32.598 42 21C42 9.40202 32.598 0 21 0C9.40202 0 0 9.40202 0 21C0 32.598 9.40202 42 21 42Z" fill="#A6A001"/>
<path d="M22.002 15.336C23.262 15.336 24.318 15.492 25.17 15.804C26.022 16.116 26.7 16.542 27.204 17.082C27.708 17.61 28.068 18.222 28.284 18.918C28.512 19.614 28.626 20.346 28.626 21.114C28.626 21.894 28.506 22.638 28.266 23.346C28.026 24.054 27.642 24.684 27.114 25.236C26.598 25.776 25.92 26.208 25.08 26.532C24.24 26.844 23.214 27 22.002 27H16.404V15.336H22.002ZM18.456 25.2H21.984C22.872 25.2 23.61 25.086 24.198 24.858C24.786 24.63 25.254 24.324 25.602 23.94C25.95 23.544 26.196 23.106 26.34 22.626C26.484 22.134 26.556 21.63 26.556 21.114C26.556 20.598 26.484 20.106 26.34 19.638C26.196 19.158 25.95 18.732 25.602 18.36C25.254 17.976 24.786 17.676 24.198 17.46C23.61 17.232 22.872 17.118 21.984 17.118H18.456V25.2ZM34.6491 27.198C33.8331 27.198 33.0831 27 32.3991 26.604C31.7271 26.208 31.1871 25.662 30.7791 24.966C30.3831 24.258 30.1851 23.448 30.1851 22.536C30.1851 21.6 30.3891 20.784 30.7971 20.088C31.2051 19.38 31.7571 18.828 32.4531 18.432C33.1491 18.036 33.9291 17.838 34.7931 17.838C35.7531 17.838 36.5151 18.048 37.0791 18.468C37.6431 18.888 38.0451 19.452 38.2851 20.16C38.5251 20.868 38.6451 21.66 38.6451 22.536C38.6451 23.028 38.5731 23.55 38.4291 24.102C38.2851 24.642 38.0571 25.146 37.7451 25.614C37.4451 26.082 37.0371 26.466 36.5211 26.766C36.0171 27.054 35.3931 27.198 34.6491 27.198ZM35.2611 25.542C35.9331 25.542 36.5031 25.416 36.9711 25.164C37.4511 24.9 37.8111 24.54 38.0511 24.084C38.3031 23.628 38.4291 23.112 38.4291 22.536C38.4291 21.9 38.3031 21.36 38.0511 20.916C37.7991 20.46 37.4391 20.112 36.9711 19.872C36.5031 19.62 35.9331 19.494 35.2611 19.494C34.3011 19.494 33.5571 19.776 33.0291 20.34C32.5011 20.904 32.2371 21.636 32.2371 22.536C32.2371 23.124 32.3631 23.646 32.6151 24.102C32.8791 24.558 33.2391 24.912 33.6951 25.164C34.1511 25.416 34.6731 25.542 35.2611 25.542ZM38.4291 18.036H40.4451V27H38.5731C38.5731 27 38.5611 26.886 38.5371 26.658C38.5131 26.43 38.4891 26.154 38.4651 25.83C38.4411 25.494 38.4291 25.176 38.4291 24.876V18.036ZM51.7494 18.036L47.5374 22.986L44.3694 27H41.9214L46.3494 21.78L49.3194 18.036H51.7494ZM41.9214 18.036H44.3874L47.5554 21.78L51.9834 27H49.5354L46.2594 23.022L41.9214 18.036ZM55.8271 14.238V16.164H53.4331V14.238H55.8271ZM53.6131 18.036H55.6291V27H53.6131V18.036ZM58.2023 14.436H60.2003V27H58.2023V14.436ZM71.5462 27.198C70.5502 27.198 69.6562 27.018 68.8642 26.658C68.0722 26.298 67.4482 25.77 66.9922 25.074C66.5362 24.378 66.3082 23.532 66.3082 22.536C66.3082 21.552 66.5362 20.712 66.9922 20.016C67.4482 19.308 68.0722 18.768 68.8642 18.396C69.6562 18.024 70.5502 17.838 71.5462 17.838C72.5422 17.838 73.4302 18.024 74.2102 18.396C74.9902 18.768 75.6022 19.308 76.0462 20.016C76.5022 20.712 76.7302 21.552 76.7302 22.536C76.7302 23.532 76.5022 24.378 76.0462 25.074C75.6022 25.77 74.9902 26.298 74.2102 26.658C73.4302 27.018 72.5422 27.198 71.5462 27.198ZM71.5462 25.56C72.1222 25.56 72.6502 25.446 73.1302 25.218C73.6102 24.99 73.9882 24.648 74.2642 24.192C74.5522 23.736 74.6962 23.184 74.6962 22.536C74.6962 21.888 74.5522 21.336 74.2642 20.88C73.9882 20.424 73.6102 20.076 73.1302 19.836C72.6622 19.584 72.1342 19.458 71.5462 19.458C70.9582 19.458 70.4242 19.578 69.9442 19.818C69.4642 20.058 69.0742 20.406 68.7742 20.862C68.4862 21.318 68.3422 21.876 68.3422 22.536C68.3422 23.184 68.4862 23.736 68.7742 24.192C69.0622 24.648 69.4462 24.99 69.9262 25.218C70.4182 25.446 70.9582 25.56 71.5462 25.56ZM78.6983 14.436H80.6963V27H78.6983V14.436ZM92.4658 27H90.4678V18.036H92.4658V27ZM90.5758 22.734L90.5938 23.31C90.5698 23.466 90.5158 23.7 90.4318 24.012C90.3598 24.324 90.2338 24.666 90.0538 25.038C89.8858 25.398 89.6578 25.746 89.3698 26.082C89.0938 26.406 88.7458 26.676 88.3258 26.892C87.9058 27.096 87.3958 27.198 86.7958 27.198C86.3638 27.198 85.9258 27.138 85.4818 27.018C85.0498 26.91 84.6538 26.724 84.2938 26.46C83.9458 26.196 83.6638 25.836 83.4478 25.38C83.2318 24.924 83.1238 24.348 83.1238 23.652V18.036H85.1218V23.274C85.1218 23.838 85.2118 24.282 85.3918 24.606C85.5838 24.918 85.8478 25.14 86.1838 25.272C86.5198 25.404 86.9098 25.47 87.3538 25.47C87.9898 25.47 88.5298 25.326 88.9738 25.038C89.4178 24.75 89.7718 24.396 90.0358 23.976C90.3118 23.544 90.4918 23.13 90.5758 22.734ZM94.6726 18.036H96.6706V27H94.6726V18.036ZM100.451 17.838C100.967 17.838 101.441 17.91 101.873 18.054C102.317 18.198 102.695 18.42 103.007 18.72C103.331 19.008 103.577 19.368 103.745 19.8C103.925 20.232 104.015 20.742 104.015 21.33V27H102.017V21.726C102.017 20.994 101.837 20.454 101.477 20.106C101.129 19.746 100.577 19.566 99.8206 19.566C99.2446 19.566 98.7166 19.692 98.2366 19.944C97.7686 20.184 97.3846 20.502 97.0846 20.898C96.7846 21.282 96.6106 21.708 96.5626 22.176L96.5446 21.204C96.6046 20.76 96.7366 20.34 96.9406 19.944C97.1446 19.536 97.4146 19.176 97.7506 18.864C98.0866 18.54 98.4826 18.288 98.9386 18.108C99.3946 17.928 99.8986 17.838 100.451 17.838Z" fill="white"/>
<path fill-rule="evenodd" clip-rule="evenodd" d="M119.499 14.8218L125.677 21.0001L119.499 27.1784L118.32 26.0001L123.32 21.0001L118.32 16.0001L119.499 14.8218Z" fill="white"/>
</svg>
