<svg width="130" height="42" viewBox="0 0 130 42" fill="none" xmlns="http://www.w3.org/2000/svg">
<path d="M21 42C32.598 42 42 32.598 42 21C42 9.40202 32.598 0 21 0C9.40202 0 0 9.40202 0 21C0 32.598 9.40202 42 21 42Z" fill="#A6A001"/>
<path d="M18.456 15.336V25.236H25.728V27H16.404V15.336H18.456ZM34.8364 24.048H36.7624C36.6664 24.66 36.4264 25.206 36.0424 25.686C35.6704 26.154 35.1604 26.526 34.5124 26.802C33.8644 27.066 33.0904 27.198 32.1904 27.198C31.1704 27.198 30.2584 27.012 29.4544 26.64C28.6504 26.256 28.0204 25.716 27.5644 25.02C27.1084 24.324 26.8804 23.496 26.8804 22.536C26.8804 21.588 27.1024 20.76 27.5464 20.052C27.9904 19.344 28.6024 18.798 29.3824 18.414C30.1744 18.03 31.0864 17.838 32.1184 17.838C33.1864 17.838 34.0744 18.03 34.7824 18.414C35.5024 18.786 36.0364 19.35 36.3844 20.106C36.7324 20.85 36.8764 21.792 36.8164 22.932H28.9144C28.9744 23.436 29.1364 23.892 29.4004 24.3C29.6764 24.696 30.0484 25.008 30.5164 25.236C30.9844 25.452 31.5304 25.56 32.1544 25.56C32.8504 25.56 33.4324 25.422 33.9004 25.146C34.3804 24.87 34.6924 24.504 34.8364 24.048ZM32.0644 19.458C31.2484 19.458 30.5764 19.662 30.0484 20.07C29.5204 20.466 29.1784 20.976 29.0224 21.6H34.8004C34.7524 20.928 34.4824 20.406 33.9904 20.034C33.4984 19.65 32.8564 19.458 32.0644 19.458ZM37.8278 18.036H44.1638V19.674H37.8278V18.036ZM39.9878 15.624H42.0038V27H39.9878V15.624ZM45.8791 19.854L45.5191 19.314C45.7111 19.026 45.8851 18.72 46.0411 18.396C46.2091 18.06 46.2991 17.73 46.3111 17.406L45.3571 17.208V15.264H47.8231V16.668C47.8231 17.46 47.6371 18.108 47.2651 18.612C46.9051 19.116 46.4431 19.53 45.8791 19.854ZM49.2766 24.048H51.1306C51.2266 24.504 51.4726 24.876 51.8686 25.164C52.2646 25.44 52.7986 25.578 53.4706 25.578C53.9026 25.578 54.2386 25.53 54.4786 25.434C54.7306 25.338 54.9046 25.206 55.0006 25.038C55.1086 24.87 55.1626 24.678 55.1626 24.462C55.1626 24.198 55.0846 23.994 54.9286 23.85C54.7846 23.706 54.5686 23.586 54.2806 23.49C53.9926 23.394 53.6326 23.31 53.2006 23.238C52.7566 23.13 52.3186 23.01 51.8866 22.878C51.4546 22.746 51.0646 22.584 50.7166 22.392C50.3686 22.188 50.0926 21.936 49.8886 21.636C49.6966 21.324 49.6006 20.946 49.6006 20.502C49.6006 20.094 49.6906 19.728 49.8706 19.404C50.0626 19.068 50.3266 18.786 50.6626 18.558C50.9986 18.33 51.3946 18.156 51.8506 18.036C52.3066 17.904 52.8046 17.838 53.3446 17.838C54.1246 17.838 54.7726 17.964 55.2886 18.216C55.8166 18.468 56.2126 18.822 56.4766 19.278C56.7526 19.734 56.8906 20.256 56.8906 20.844H55.1266C55.0306 20.364 54.8446 20.016 54.5686 19.8C54.2926 19.584 53.8786 19.476 53.3266 19.476C52.7746 19.476 52.3546 19.572 52.0666 19.764C51.7786 19.956 51.6346 20.22 51.6346 20.556C51.6346 20.808 51.7246 21.012 51.9046 21.168C52.0966 21.312 52.3666 21.438 52.7146 21.546C53.0626 21.654 53.4706 21.762 53.9386 21.87C54.3706 21.99 54.7786 22.116 55.1626 22.248C55.5466 22.368 55.8886 22.524 56.1886 22.716C56.5006 22.896 56.7466 23.136 56.9266 23.436C57.1066 23.736 57.1966 24.108 57.1966 24.552C57.1966 25.104 57.0466 25.578 56.7466 25.974C56.4586 26.37 56.0386 26.676 55.4866 26.892C54.9346 27.096 54.2686 27.198 53.4886 27.198C52.8046 27.198 52.2106 27.12 51.7066 26.964C51.2146 26.808 50.8006 26.604 50.4646 26.352C50.1406 26.1 49.8886 25.83 49.7086 25.542C49.5286 25.254 49.4026 24.978 49.3306 24.714C49.2706 24.45 49.2526 24.228 49.2766 24.048ZM61.6424 15.336H72.8384V17.1H61.6424V15.336ZM66.2324 16.884H68.2664V27H66.2324V16.884ZM76.7663 27.198C75.9503 27.198 75.2003 27 74.5163 26.604C73.8443 26.208 73.3043 25.662 72.8963 24.966C72.5003 24.258 72.3023 23.448 72.3023 22.536C72.3023 21.6 72.5063 20.784 72.9143 20.088C73.3223 19.38 73.8743 18.828 74.5703 18.432C75.2663 18.036 76.0463 17.838 76.9103 17.838C77.8703 17.838 78.6323 18.048 79.1963 18.468C79.7603 18.888 80.1623 19.452 80.4023 20.16C80.6423 20.868 80.7623 21.66 80.7623 22.536C80.7623 23.028 80.6903 23.55 80.5463 24.102C80.4023 24.642 80.1743 25.146 79.8623 25.614C79.5623 26.082 79.1543 26.466 78.6383 26.766C78.1343 27.054 77.5103 27.198 76.7663 27.198ZM77.3783 25.542C78.0503 25.542 78.6203 25.416 79.0883 25.164C79.5683 24.9 79.9283 24.54 80.1683 24.084C80.4203 23.628 80.5463 23.112 80.5463 22.536C80.5463 21.9 80.4203 21.36 80.1683 20.916C79.9163 20.46 79.5563 20.112 79.0883 19.872C78.6203 19.62 78.0503 19.494 77.3783 19.494C76.4183 19.494 75.6743 19.776 75.1463 20.34C74.6183 20.904 74.3543 21.636 74.3543 22.536C74.3543 23.124 74.4803 23.646 74.7323 24.102C74.9963 24.558 75.3563 24.912 75.8123 25.164C76.2683 25.416 76.7903 25.542 77.3783 25.542ZM80.5463 18.036H82.5623V27H80.6903C80.6903 27 80.6783 26.886 80.6543 26.658C80.6303 26.43 80.6063 26.154 80.5823 25.83C80.5583 25.494 80.5463 25.176 80.5463 24.876V18.036ZM84.9386 14.436H86.9366V27H84.9386V14.436ZM89.544 14.436H91.542V27H89.544V14.436ZM98.526 18.036L93.504 22.644L93.558 21.384L98.904 27H96.348L91.596 21.978L95.754 18.036H98.526Z" fill="white"/>
<path fill-rule="evenodd" clip-rule="evenodd" d="M113.499 14.8218L119.677 21.0001L113.499 27.1784L112.32 26.0001L117.32 21.0001L112.32 16.0001L113.499 14.8218Z" fill="white"/>
</svg>
