<svg width="1920" height="100" viewBox="0 0 1920 100" fill="none" xmlns="http://www.w3.org/2000/svg">
<g clip-path="url(#clip0_3521_2)">
<path d="M1920 0H0V100H1920V0Z" fill="#1E1E1E"/>
<path d="M757.834 55.7862L756.347 60.0026H756.223C755.976 59.0519 755.521 57.6051 754.778 55.8689L746.806 35.8205H739V67.774H744.163V48.0562C744.163 46.8161 744.163 45.4107 744.122 43.6745C744.08 42.8064 743.998 42.145 743.956 41.649H744.08C744.328 42.8891 744.617 43.7985 744.824 44.3772L754.406 67.6913H758.041L767.541 44.1705C767.747 43.6332 767.954 42.5584 768.16 41.649H768.284C768.16 44.0052 768.077 46.1134 768.036 47.3948V67.65H773.529V35.7378H766.012L757.834 55.7862ZM778.734 44.7493H784.103V67.65H778.734V44.7493ZM781.46 35.0764C780.551 35.0764 779.808 35.4071 779.188 35.9858C778.568 36.5645 778.238 37.3086 778.238 38.218C778.238 39.0861 778.568 39.8302 779.188 40.4089C779.808 40.9876 780.551 41.277 781.46 41.277C782.368 41.277 783.153 40.9463 783.731 40.4089C784.351 39.8302 784.681 39.0861 784.681 38.218C784.681 37.3499 784.351 36.6059 783.731 35.9858C783.194 35.4071 782.41 35.0764 781.46 35.0764ZM803.144 44.5426C802.153 44.3359 801.12 44.2119 800.129 44.2119C797.692 44.2119 795.461 44.7493 793.603 45.824C791.744 46.8988 790.257 48.3869 789.307 50.2471C788.316 52.1486 787.82 54.3395 787.82 56.861C787.82 59.0519 788.316 60.9947 789.266 62.7722C790.216 64.5084 791.538 65.9138 793.314 66.8646C795.007 67.8153 796.99 68.3114 799.22 68.3114C801.781 68.3114 803.97 67.774 805.705 66.7819L805.746 66.7406V61.7801L805.539 61.9455C804.755 62.5242 803.846 63.0202 802.937 63.3096C801.987 63.6403 801.12 63.8056 800.377 63.8056C798.229 63.8056 796.535 63.1856 795.338 61.8214C794.098 60.4987 793.479 58.6798 793.479 56.4063C793.479 54.0501 794.098 52.1899 795.379 50.8258C796.659 49.4617 798.353 48.759 800.418 48.759C802.153 48.759 803.929 49.3377 805.539 50.4951L805.746 50.6605V45.4107L805.705 45.3693C805.002 45.08 804.218 44.7493 803.144 44.5426ZM820.863 44.3772C819.541 44.3772 818.302 44.7906 817.228 45.6587C816.32 46.4027 815.7 47.4775 815.163 48.759H815.122V44.7493H809.752V67.65H815.122V55.9516C815.122 53.9674 815.535 52.3139 816.443 51.1152C817.352 49.8751 818.509 49.255 819.913 49.255C820.409 49.255 820.904 49.379 821.524 49.4617C822.102 49.627 822.515 49.7924 822.804 49.9991L823.011 50.1644V44.7906L822.887 44.7493C822.515 44.5012 821.772 44.3772 820.863 44.3772ZM835.484 44.2532C831.726 44.2532 828.711 45.3693 826.604 47.5602C824.456 49.751 823.424 52.7686 823.424 56.5716C823.424 60.1266 824.498 63.0202 826.563 65.1284C828.628 67.1953 831.437 68.27 834.947 68.27C838.623 68.27 841.556 67.1539 843.662 64.9217C845.81 62.6895 846.843 59.7133 846.843 56.0343C846.843 52.3966 845.851 49.503 843.827 47.3948C841.886 45.2866 839.036 44.2532 835.484 44.2532ZM839.78 61.8628C838.789 63.1442 837.219 63.7643 835.278 63.7643C833.336 63.7643 831.767 63.1442 830.652 61.7801C829.537 60.4987 829 58.6385 829 56.2823C829 53.8434 829.578 51.9832 830.652 50.6605C831.767 49.3377 833.295 48.6763 835.236 48.6763C837.136 48.6763 838.623 49.2963 839.697 50.5778C840.771 51.8592 841.349 53.7194 841.349 56.1583C841.267 58.6385 840.812 60.5813 839.78 61.8628ZM858.821 54.2568C857.127 53.554 856.053 53.0167 855.558 52.562C855.145 52.1486 854.938 51.5699 854.938 50.8258C854.938 50.2057 855.186 49.5857 855.805 49.1723C856.425 48.759 857.127 48.5523 858.16 48.5523C859.068 48.5523 860.018 48.7176 860.927 48.9656C861.836 49.2137 862.662 49.5857 863.323 50.0817L863.529 50.2471V45.204L863.405 45.1626C862.786 44.9146 861.96 44.6666 860.968 44.4599C859.977 44.2946 859.068 44.2119 858.325 44.2119C855.764 44.2119 853.658 44.8319 852.006 46.1961C850.353 47.4775 849.569 49.2137 849.569 51.2392C849.569 52.3139 849.734 53.2647 850.106 54.0501C850.477 54.8355 851.014 55.5796 851.758 56.1996C852.501 56.7783 853.575 57.4397 855.062 58.0598C856.301 58.5972 857.251 59.0105 857.829 59.3412C858.408 59.6719 858.779 60.044 859.068 60.3333C859.275 60.664 859.399 61.0774 859.399 61.6148C859.399 63.1442 858.242 63.8883 855.888 63.8883C854.979 63.8883 854.029 63.7229 852.914 63.3509C851.799 62.9789 850.766 62.4415 849.899 61.8214L849.693 61.6561V66.9059L849.816 66.9472C850.601 67.3193 851.551 67.5673 852.708 67.8566C853.864 68.0633 854.897 68.2287 855.805 68.2287C858.573 68.2287 860.844 67.6086 862.455 66.2445C864.107 64.9217 864.975 63.2269 864.975 61.036C864.975 59.5066 864.562 58.1425 863.653 57.109C862.455 56.1169 860.968 55.0835 858.821 54.2568ZM879.142 44.2532C875.383 44.2532 872.368 45.3693 870.262 47.5602C868.155 49.751 867.081 52.7686 867.081 56.5716C867.081 60.1266 868.155 63.0202 870.22 65.1284C872.285 67.1953 875.094 68.27 878.605 68.27C882.281 68.27 885.213 67.1539 887.32 64.9217C889.468 62.6895 890.5 59.7133 890.5 56.0343C890.5 52.3966 889.509 49.503 887.485 47.3948C885.544 45.2866 882.694 44.2532 879.142 44.2532ZM883.396 61.8628C882.405 63.1442 880.835 63.7643 878.894 63.7643C876.911 63.7643 875.383 63.1442 874.268 61.7801C873.153 60.4987 872.616 58.6385 872.616 56.2823C872.616 53.8434 873.194 51.9832 874.268 50.6605C875.383 49.3377 876.911 48.6763 878.853 48.6763C880.711 48.6763 882.239 49.2963 883.313 50.5778C884.387 51.8592 884.965 53.7194 884.965 56.1583C884.965 58.6385 884.429 60.5813 883.396 61.8628ZM919.206 49.1723V44.7493H913.795V37.97L913.63 38.0113L908.508 39.5408L908.384 39.5821V44.7493H900.289V41.8557C900.289 40.5329 900.619 39.4995 901.198 38.8381C901.776 38.1767 902.643 37.846 903.717 37.846C904.461 37.846 905.245 38.0113 906.113 38.3834L906.319 38.5074V33.8363L906.195 33.795C905.452 33.5469 904.461 33.3816 903.18 33.3816C901.569 33.3816 900.165 33.7536 898.885 34.3737C897.604 35.0764 896.654 36.0272 895.952 37.3086C895.25 38.5487 894.878 39.9542 894.878 41.5663V44.7493H891.12V49.131H894.878V67.65H900.289V49.1723H908.384V60.9534C908.384 65.7898 910.656 68.2287 915.199 68.2287C915.943 68.2287 916.728 68.1047 917.471 67.9807C918.256 67.8153 918.834 67.6086 919.165 67.4433L919.206 67.4019V62.9789L918.999 63.1442C918.669 63.3509 918.38 63.5163 917.884 63.6403C917.471 63.7643 917.099 63.8056 916.81 63.8056C915.736 63.8056 914.993 63.5576 914.456 62.9375C913.96 62.3588 913.712 61.4081 913.712 60.0026V49.1723H919.206Z" fill="#939393"/>
<path d="M1745.83 55.7862L1744.35 60.0026H1744.22C1743.98 59.0519 1743.52 57.6051 1742.78 55.8689L1734.81 35.8205H1727V67.774H1732.16V48.0562C1732.16 46.8161 1732.16 45.4107 1732.12 43.6745C1732.08 42.8064 1732 42.145 1731.96 41.649H1732.08C1732.33 42.8891 1732.62 43.7985 1732.82 44.3772L1742.41 67.6913H1746.04L1755.54 44.1705C1755.75 43.6332 1755.95 42.5584 1756.16 41.649H1756.28C1756.16 44.0052 1756.08 46.1134 1756.04 47.3948V67.65H1761.53V35.7378H1754.01L1745.83 55.7862ZM1766.73 44.7493H1772.1V67.65H1766.73V44.7493ZM1769.46 35.0764C1768.55 35.0764 1767.81 35.4071 1767.19 35.9858C1766.57 36.5645 1766.24 37.3086 1766.24 38.218C1766.24 39.0861 1766.57 39.8302 1767.19 40.4089C1767.81 40.9876 1768.55 41.277 1769.46 41.277C1770.37 41.277 1771.15 40.9463 1771.73 40.4089C1772.35 39.8302 1772.68 39.0861 1772.68 38.218C1772.68 37.3499 1772.35 36.6059 1771.73 35.9858C1771.19 35.4071 1770.41 35.0764 1769.46 35.0764ZM1791.14 44.5426C1790.15 44.3359 1789.12 44.2119 1788.13 44.2119C1785.69 44.2119 1783.46 44.7493 1781.6 45.824C1779.74 46.8988 1778.26 48.3869 1777.31 50.2471C1776.32 52.1486 1775.82 54.3395 1775.82 56.861C1775.82 59.0519 1776.32 60.9947 1777.27 62.7722C1778.22 64.5084 1779.54 65.9138 1781.31 66.8646C1783.01 67.8153 1784.99 68.3114 1787.22 68.3114C1789.78 68.3114 1791.97 67.774 1793.7 66.7819L1793.75 66.7406V61.7801L1793.54 61.9455C1792.75 62.5242 1791.85 63.0202 1790.94 63.3096C1789.99 63.6403 1789.12 63.8056 1788.38 63.8056C1786.23 63.8056 1784.54 63.1856 1783.34 61.8214C1782.1 60.4987 1781.48 58.6798 1781.48 56.4063C1781.48 54.0501 1782.1 52.1899 1783.38 50.8258C1784.66 49.4617 1786.35 48.759 1788.42 48.759C1790.15 48.759 1791.93 49.3377 1793.54 50.4951L1793.75 50.6605V45.4107L1793.7 45.3693C1793 45.08 1792.22 44.7493 1791.14 44.5426ZM1808.86 44.3772C1807.54 44.3772 1806.3 44.7906 1805.23 45.6587C1804.32 46.4027 1803.7 47.4775 1803.16 48.759H1803.12V44.7493H1797.75V67.65H1803.12V55.9516C1803.12 53.9674 1803.53 52.3139 1804.44 51.1152C1805.35 49.8751 1806.51 49.255 1807.91 49.255C1808.41 49.255 1808.9 49.379 1809.52 49.4617C1810.1 49.627 1810.52 49.7924 1810.8 49.9991L1811.01 50.1644V44.7906L1810.89 44.7493C1810.52 44.5012 1809.77 44.3772 1808.86 44.3772ZM1823.48 44.2532C1819.73 44.2532 1816.71 45.3693 1814.6 47.5602C1812.46 49.751 1811.42 52.7686 1811.42 56.5716C1811.42 60.1266 1812.5 63.0202 1814.56 65.1284C1816.63 67.1953 1819.44 68.27 1822.95 68.27C1826.62 68.27 1829.56 67.1539 1831.66 64.9217C1833.81 62.6895 1834.84 59.7133 1834.84 56.0343C1834.84 52.3966 1833.85 49.503 1831.83 47.3948C1829.89 45.2866 1827.04 44.2532 1823.48 44.2532ZM1827.78 61.8628C1826.79 63.1442 1825.22 63.7643 1823.28 63.7643C1821.34 63.7643 1819.77 63.1442 1818.65 61.7801C1817.54 60.4987 1817 58.6385 1817 56.2823C1817 53.8434 1817.58 51.9832 1818.65 50.6605C1819.77 49.3377 1821.3 48.6763 1823.24 48.6763C1825.14 48.6763 1826.62 49.2963 1827.7 50.5778C1828.77 51.8592 1829.35 53.7194 1829.35 56.1583C1829.27 58.6385 1828.81 60.5813 1827.78 61.8628ZM1846.82 54.2568C1845.13 53.554 1844.05 53.0167 1843.56 52.562C1843.14 52.1486 1842.94 51.5699 1842.94 50.8258C1842.94 50.2057 1843.19 49.5857 1843.81 49.1723C1844.42 48.759 1845.13 48.5523 1846.16 48.5523C1847.07 48.5523 1848.02 48.7176 1848.93 48.9656C1849.84 49.2137 1850.66 49.5857 1851.32 50.0817L1851.53 50.2471V45.204L1851.41 45.1626C1850.79 44.9146 1849.96 44.6666 1848.97 44.4599C1847.98 44.2946 1847.07 44.2119 1846.32 44.2119C1843.76 44.2119 1841.66 44.8319 1840.01 46.1961C1838.35 47.4775 1837.57 49.2137 1837.57 51.2392C1837.57 52.3139 1837.73 53.2647 1838.11 54.0501C1838.48 54.8355 1839.01 55.5796 1839.76 56.1996C1840.5 56.7783 1841.58 57.4397 1843.06 58.0598C1844.3 58.5972 1845.25 59.0105 1845.83 59.3412C1846.41 59.6719 1846.78 60.044 1847.07 60.3333C1847.27 60.664 1847.4 61.0774 1847.4 61.6148C1847.4 63.1442 1846.24 63.8883 1843.89 63.8883C1842.98 63.8883 1842.03 63.7229 1840.91 63.3509C1839.8 62.9789 1838.77 62.4415 1837.9 61.8214L1837.69 61.6561V66.9059L1837.82 66.9472C1838.6 67.3193 1839.55 67.5673 1840.71 67.8566C1841.86 68.0633 1842.9 68.2287 1843.81 68.2287C1846.57 68.2287 1848.84 67.6086 1850.46 66.2445C1852.11 64.9217 1852.97 63.2269 1852.97 61.036C1852.97 59.5066 1852.56 58.1425 1851.65 57.109C1850.46 56.1169 1848.97 55.0835 1846.82 54.2568ZM1867.14 44.2532C1863.38 44.2532 1860.37 45.3693 1858.26 47.5602C1856.16 49.751 1855.08 52.7686 1855.08 56.5716C1855.08 60.1266 1856.16 63.0202 1858.22 65.1284C1860.29 67.1953 1863.09 68.27 1866.6 68.27C1870.28 68.27 1873.21 67.1539 1875.32 64.9217C1877.47 62.6895 1878.5 59.7133 1878.5 56.0343C1878.5 52.3966 1877.51 49.503 1875.48 47.3948C1873.54 45.2866 1870.69 44.2532 1867.14 44.2532ZM1871.4 61.8628C1870.4 63.1442 1868.84 63.7643 1866.89 63.7643C1864.91 63.7643 1863.38 63.1442 1862.27 61.7801C1861.15 60.4987 1860.62 58.6385 1860.62 56.2823C1860.62 53.8434 1861.19 51.9832 1862.27 50.6605C1863.38 49.3377 1864.91 48.6763 1866.85 48.6763C1868.71 48.6763 1870.24 49.2963 1871.31 50.5778C1872.39 51.8592 1872.97 53.7194 1872.97 56.1583C1872.97 58.6385 1872.43 60.5813 1871.4 61.8628ZM1907.21 49.1723V44.7493H1901.8V37.97L1901.63 38.0113L1896.51 39.5408L1896.38 39.5821V44.7493H1888.29V41.8557C1888.29 40.5329 1888.62 39.4995 1889.2 38.8381C1889.78 38.1767 1890.64 37.846 1891.72 37.846C1892.46 37.846 1893.25 38.0113 1894.11 38.3834L1894.32 38.5074V33.8363L1894.2 33.795C1893.45 33.5469 1892.46 33.3816 1891.18 33.3816C1889.57 33.3816 1888.17 33.7536 1886.88 34.3737C1885.6 35.0764 1884.65 36.0272 1883.95 37.3086C1883.25 38.5487 1882.88 39.9542 1882.88 41.5663V44.7493H1879.12V49.131H1882.88V67.65H1888.29V49.1723H1896.38V60.9534C1896.38 65.7898 1898.66 68.2287 1903.2 68.2287C1903.94 68.2287 1904.73 68.1047 1905.47 67.9807C1906.26 67.8153 1906.83 67.6086 1907.16 67.4433L1907.21 67.4019V62.9789L1907 63.1442C1906.67 63.3509 1906.38 63.5163 1905.88 63.6403C1905.47 63.7643 1905.1 63.8056 1904.81 63.8056C1903.74 63.8056 1902.99 63.5576 1902.46 62.9375C1901.96 62.3588 1901.71 61.4081 1901.71 60.0026V49.1723H1907.21Z" fill="#939393"/>
<path d="M428.049 42.4833C427.874 41.7827 427.918 41.0821 428.005 40.688C428.224 39.5934 428.967 38.4112 431.109 38.4112C433.12 38.4112 434.256 39.6372 434.256 41.52C434.256 42.133 434.256 43.6217 434.256 43.6217H442.737V41.2135C442.781 33.7699 436.092 32.5876 431.284 32.5876C425.251 32.5876 420.311 34.6018 419.393 40.1626C419.131 41.6951 419.087 43.0525 419.481 44.7601C420.967 51.7221 433.076 53.7363 434.825 58.1586C435.174 58.9906 435.043 60.0414 434.912 60.6982C434.65 61.8367 433.863 63.0189 431.59 63.0189C429.448 63.0189 428.18 61.7929 428.18 59.9101V56.6261H419V59.2533C419 66.872 424.989 69.1489 431.371 69.1489C437.535 69.1489 442.562 67.0472 443.393 61.355C443.786 58.4214 443.48 56.4948 443.349 55.7942C441.95 48.5695 429.011 46.4678 428.049 42.4833ZM538.778 42.5271C538.647 41.8703 538.691 41.1259 538.734 40.7756C538.997 39.681 539.696 38.4987 541.838 38.4987C543.805 38.4987 544.942 39.7248 544.942 41.5638C544.942 42.1768 544.942 43.6655 544.942 43.6655H553.335V41.301C553.335 33.945 546.778 32.8066 542.013 32.8066C536.024 32.8066 531.128 34.7769 530.21 40.294C529.992 41.7827 529.904 43.1401 530.298 44.8477C531.74 51.7221 543.718 53.7363 545.467 58.1149C545.773 58.9468 545.685 59.9976 545.51 60.6107C545.248 61.7491 544.505 62.8875 542.232 62.8875C540.133 62.8875 538.822 61.6615 538.822 59.8225V56.5386H529.773V59.1219C529.773 66.6531 535.674 68.93 542.013 68.93C548.089 68.93 553.117 66.8283 553.903 61.2237C554.297 58.29 553.991 56.4072 553.86 55.7066C552.505 48.6133 539.74 46.5116 538.778 42.5271ZM616.066 61.1361L608.066 33.6823H595.432V67.4413H603.782L603.301 39.1118L611.913 67.4413H624.022V33.6823H615.629L616.066 61.1361ZM455.458 33.6823L449.119 67.7915H458.299L463.064 36.2219L467.698 67.7915H476.834L470.583 33.6823H455.458ZM506.866 33.6823L502.582 60.3479L498.298 33.6823H484.397L483.654 67.7915H492.178L492.397 36.2219L498.255 67.7915H506.866L512.724 36.2219L512.943 67.7915H521.467L520.724 33.6823H506.866ZM585.99 33.6823H577.378V58.903C577.378 59.3409 577.378 59.8225 577.291 60.2166C577.116 61.0485 576.416 62.7124 574.012 62.7124C571.652 62.7124 570.952 61.0923 570.777 60.2166C570.69 59.8663 570.69 59.3409 570.69 58.903V33.6823H562.078V58.1149C562.078 58.7279 562.122 60.0414 562.166 60.3479C562.778 66.6969 567.761 68.7986 574.012 68.7986C580.263 68.7986 585.291 66.7407 585.903 60.3479C585.946 59.9976 586.034 58.7279 585.99 58.1149V33.6823ZM645.092 48.6133V53.6049H648.589V58.5527C648.589 58.9906 648.589 59.4722 648.502 59.8663C648.371 60.7858 647.497 62.3621 645.005 62.3621C642.557 62.3621 641.682 60.7858 641.551 59.8663C641.508 59.4722 641.464 58.9906 641.464 58.5527V42.9649C641.464 42.3957 641.508 41.8265 641.639 41.3448C641.814 40.5129 642.557 38.8928 645.005 38.8928C647.628 38.8928 648.24 40.6005 648.415 41.3448C648.502 41.8265 648.502 42.6584 648.502 42.6584V44.5412H657.07V43.4028C657.07 43.4028 657.114 42.2206 657.026 41.1259C656.371 34.7769 651.081 32.7628 645.048 32.7628C639.016 32.7628 633.858 34.8207 633.114 41.1697C633.027 41.7389 632.94 42.7898 632.94 43.4466V57.7646C632.94 58.3776 632.94 58.8592 633.071 59.9976C633.639 66.2153 639.016 68.4045 645.048 68.4045C651.125 68.4045 656.458 66.2153 657.026 59.9976C657.114 58.8592 657.157 58.3776 657.157 57.7646V48.6133H645.092Z" fill="#939393"/>
<path d="M1416.05 42.4833C1415.87 41.7827 1415.92 41.0821 1416.01 40.688C1416.22 39.5934 1416.97 38.4112 1419.11 38.4112C1421.12 38.4112 1422.26 39.6372 1422.26 41.52C1422.26 42.133 1422.26 43.6217 1422.26 43.6217H1430.74V41.2135C1430.78 33.7699 1424.09 32.5876 1419.28 32.5876C1413.25 32.5876 1408.31 34.6018 1407.39 40.1626C1407.13 41.6951 1407.09 43.0525 1407.48 44.7601C1408.97 51.7221 1421.08 53.7363 1422.82 58.1586C1423.17 58.9906 1423.04 60.0414 1422.91 60.6982C1422.65 61.8367 1421.86 63.0189 1419.59 63.0189C1417.45 63.0189 1416.18 61.7929 1416.18 59.9101V56.6261H1407V59.2533C1407 66.872 1412.99 69.1489 1419.37 69.1489C1425.54 69.1489 1430.56 67.0472 1431.39 61.355C1431.79 58.4214 1431.48 56.4948 1431.35 55.7942C1429.95 48.5695 1417.01 46.4678 1416.05 42.4833ZM1526.78 42.5271C1526.65 41.8703 1526.69 41.1259 1526.73 40.7756C1527 39.681 1527.7 38.4987 1529.84 38.4987C1531.81 38.4987 1532.94 39.7248 1532.94 41.5638C1532.94 42.1768 1532.94 43.6655 1532.94 43.6655H1541.34V41.301C1541.34 33.945 1534.78 32.8066 1530.01 32.8066C1524.02 32.8066 1519.13 34.7769 1518.21 40.294C1517.99 41.7827 1517.9 43.1401 1518.3 44.8477C1519.74 51.7221 1531.72 53.7363 1533.47 58.1149C1533.77 58.9468 1533.69 59.9976 1533.51 60.6107C1533.25 61.7491 1532.5 62.8875 1530.23 62.8875C1528.13 62.8875 1526.82 61.6615 1526.82 59.8225V56.5386H1517.77V59.1219C1517.77 66.6531 1523.67 68.93 1530.01 68.93C1536.09 68.93 1541.12 66.8283 1541.9 61.2237C1542.3 58.29 1541.99 56.4072 1541.86 55.7066C1540.5 48.6133 1527.74 46.5116 1526.78 42.5271ZM1604.07 61.1361L1596.07 33.6823H1583.43V67.4413H1591.78L1591.3 39.1118L1599.91 67.4413H1612.02V33.6823H1603.63L1604.07 61.1361ZM1443.46 33.6823L1437.12 67.7915H1446.3L1451.06 36.2219L1455.7 67.7915H1464.83L1458.58 33.6823H1443.46ZM1494.87 33.6823L1490.58 60.3479L1486.3 33.6823H1472.4L1471.65 67.7915H1480.18L1480.4 36.2219L1486.25 67.7915H1494.87L1500.72 36.2219L1500.94 67.7915H1509.47L1508.72 33.6823H1494.87ZM1573.99 33.6823H1565.38V58.903C1565.38 59.3409 1565.38 59.8225 1565.29 60.2166C1565.12 61.0485 1564.42 62.7124 1562.01 62.7124C1559.65 62.7124 1558.95 61.0923 1558.78 60.2166C1558.69 59.8663 1558.69 59.3409 1558.69 58.903V33.6823H1550.08V58.1149C1550.08 58.7279 1550.12 60.0414 1550.17 60.3479C1550.78 66.6969 1555.76 68.7986 1562.01 68.7986C1568.26 68.7986 1573.29 66.7407 1573.9 60.3479C1573.95 59.9976 1574.03 58.7279 1573.99 58.1149V33.6823ZM1633.09 48.6133V53.6049H1636.59V58.5527C1636.59 58.9906 1636.59 59.4722 1636.5 59.8663C1636.37 60.7858 1635.5 62.3621 1633 62.3621C1630.56 62.3621 1629.68 60.7858 1629.55 59.8663C1629.51 59.4722 1629.46 58.9906 1629.46 58.5527V42.9649C1629.46 42.3957 1629.51 41.8265 1629.64 41.3448C1629.81 40.5129 1630.56 38.8928 1633 38.8928C1635.63 38.8928 1636.24 40.6005 1636.41 41.3448C1636.5 41.8265 1636.5 42.6584 1636.5 42.6584V44.5412H1645.07V43.4028C1645.07 43.4028 1645.11 42.2206 1645.03 41.1259C1644.37 34.7769 1639.08 32.7628 1633.05 32.7628C1627.02 32.7628 1621.86 34.8207 1621.11 41.1697C1621.03 41.7389 1620.94 42.7898 1620.94 43.4466V57.7646C1620.94 58.3776 1620.94 58.8592 1621.07 59.9976C1621.64 66.2153 1627.02 68.4045 1633.05 68.4045C1639.12 68.4045 1644.46 66.2153 1645.03 59.9976C1645.11 58.8592 1645.16 58.3776 1645.16 57.7646V48.6133H1633.09Z" fill="#939393"/>
<path d="M34.9253 59.6656L38.0192 68.5371C38.1218 68.7593 38.2756 68.8619 38.5491 68.8619H44.4977C44.8224 68.8619 44.8737 68.708 44.8224 68.3833L32.5322 34.2476C32.4809 33.9741 32.4297 33.9229 32.1562 33.9229H24.7718C24.5667 33.9229 24.447 34.0767 24.447 34.2989C24.3444 36.0937 24.1906 36.6407 23.9684 37.1706L13.0115 68.332C12.9602 68.7081 13.0799 68.8619 13.3875 68.8619H18.7036C19.0284 68.8619 19.1822 68.7593 19.3019 68.4345L22.2249 59.6656H34.9253ZM23.9171 53.8708C25.5239 49.0163 27.6435 42.7943 28.4982 39.2388H28.5495C29.6093 42.9652 32.1049 50.3496 33.2331 53.8708H23.9171Z" fill="#939393"/>
<path d="M60.622 69.3919C63.8185 69.3919 67.2201 68.8107 70.673 67.3236C70.9465 67.221 70.9978 67.1014 70.9978 66.845C70.8952 65.8878 70.7756 64.5032 70.7756 63.4434V31.3077C70.7756 31.1026 70.7756 31 70.5192 31H64.7245C64.5023 31 64.3997 31.1026 64.3997 31.3761V42.2646C63.4937 42.162 62.8613 42.1108 62.1092 42.1108C52.759 42.1108 47.0156 48.2815 47.0156 55.9906C47.0156 64.9305 52.9129 69.3919 60.622 69.3919ZM64.3997 63.4434C63.4424 63.7511 62.3827 63.8707 61.3058 63.8707C57.0666 63.8707 53.5966 61.4776 53.5966 55.6659C53.5966 50.5207 57.1691 47.4781 61.904 47.4781C62.8613 47.4781 63.6988 47.5807 64.3997 47.8542V63.4434Z" fill="#939393"/>
<path d="M89.4852 42.1108C81.5025 42.1108 76.5625 48.2303 76.5625 55.7856C76.5625 62.5375 80.494 69.392 89.3655 69.392C96.8695 69.392 102.134 63.8708 102.134 55.6147C102.134 48.3329 97.6729 42.1108 89.4852 42.1108ZM89.1604 47.4782C93.6731 47.4782 95.5875 51.3584 95.5875 55.7856C95.5875 61.2555 92.7671 63.9734 89.4852 63.9734C85.434 63.9734 83.0409 60.5718 83.0409 55.666C83.0409 50.6234 85.5879 47.4782 89.1604 47.4782Z" fill="#939393"/>
<path d="M108.126 31C107.904 31 107.75 31.1026 107.75 31.3761V67.7509C107.75 67.9048 107.904 68.1783 108.126 68.2296C110.673 69.0159 113.34 69.3919 116.092 69.3919C123.972 69.3919 131.63 64.5032 131.63 54.6574C131.63 47.5294 126.741 42.1108 119.083 42.1108C117.322 42.1108 115.681 42.3842 114.246 42.8629L114.177 31.4273C114.177 31.0513 114.075 31 113.699 31H108.126ZM125.083 55.3069C125.083 61.2042 121.049 63.9733 116.69 63.9733C115.784 63.9733 114.981 63.922 114.246 63.6998V48.1789C115.083 47.8542 116.092 47.5807 117.955 47.5807C122.16 47.5807 125.083 50.2472 125.083 55.3069Z" fill="#939393"/>
<path d="M153.258 57.2215C155.856 57.2215 157.993 57.1702 158.728 56.9992C159.001 56.948 159.104 56.8454 159.155 56.6232C159.309 56.042 159.378 54.8284 159.378 53.3412C159.378 48.2816 156.335 42.1108 148.472 42.1108C140.438 42.1108 135.977 48.6576 135.977 56.042C135.977 62.5888 139.429 69.392 149.104 69.392C152.728 69.392 155.07 68.8108 157.087 67.8536C157.292 67.751 157.395 67.5801 157.395 67.2724V62.8452C157.395 62.5888 157.241 62.5375 157.087 62.6401C155.07 63.4948 152.882 63.9221 150.489 63.9221C145.07 63.9221 142.609 60.9307 142.455 57.2215H153.258ZM142.455 52.6404C142.882 50.0422 144.523 47.2218 148.198 47.2218C152.25 47.2218 153.309 50.6234 153.309 52.1618C153.309 52.2131 153.309 52.4353 153.309 52.5891C153.087 52.6404 152.403 52.6404 150.386 52.6404H142.455Z" fill="#939393"/>
<path d="M1022.93 59.6656L1026.02 68.5371C1026.12 68.7593 1026.28 68.8619 1026.55 68.8619H1032.5C1032.82 68.8619 1032.87 68.708 1032.82 68.3833L1020.53 34.2476C1020.48 33.9741 1020.43 33.9229 1020.16 33.9229H1012.77C1012.57 33.9229 1012.45 34.0767 1012.45 34.2989C1012.34 36.0937 1012.19 36.6407 1011.97 37.1706L1001.01 68.332C1000.96 68.7081 1001.08 68.8619 1001.39 68.8619H1006.7C1007.03 68.8619 1007.18 68.7593 1007.3 68.4345L1010.22 59.6656H1022.93ZM1011.92 53.8708C1013.52 49.0163 1015.64 42.7943 1016.5 39.2388H1016.55C1017.61 42.9652 1020.1 50.3496 1021.23 53.8708H1011.92Z" fill="#939393"/>
<path d="M1048.62 69.3919C1051.82 69.3919 1055.22 68.8107 1058.67 67.3236C1058.95 67.221 1059 67.1014 1059 66.845C1058.9 65.8878 1058.78 64.5032 1058.78 63.4434V31.3077C1058.78 31.1026 1058.78 31 1058.52 31H1052.72C1052.5 31 1052.4 31.1026 1052.4 31.3761V42.2646C1051.49 42.162 1050.86 42.1108 1050.11 42.1108C1040.76 42.1108 1035.02 48.2815 1035.02 55.9906C1035.02 64.9305 1040.91 69.3919 1048.62 69.3919ZM1052.4 63.4434C1051.44 63.7511 1050.38 63.8707 1049.31 63.8707C1045.07 63.8707 1041.6 61.4776 1041.6 55.6659C1041.6 50.5207 1045.17 47.4781 1049.9 47.4781C1050.86 47.4781 1051.7 47.5807 1052.4 47.8542V63.4434Z" fill="#939393"/>
<path d="M1077.49 42.1108C1069.5 42.1108 1064.56 48.2303 1064.56 55.7856C1064.56 62.5375 1068.49 69.392 1077.37 69.392C1084.87 69.392 1090.13 63.8708 1090.13 55.6147C1090.13 48.3329 1085.67 42.1108 1077.49 42.1108ZM1077.16 47.4782C1081.67 47.4782 1083.59 51.3584 1083.59 55.7856C1083.59 61.2555 1080.77 63.9734 1077.49 63.9734C1073.43 63.9734 1071.04 60.5718 1071.04 55.666C1071.04 50.6234 1073.59 47.4782 1077.16 47.4782Z" fill="#939393"/>
<path d="M1096.13 31C1095.9 31 1095.75 31.1026 1095.75 31.3761V67.7509C1095.75 67.9048 1095.9 68.1783 1096.13 68.2296C1098.67 69.0159 1101.34 69.3919 1104.09 69.3919C1111.97 69.3919 1119.63 64.5032 1119.63 54.6574C1119.63 47.5294 1114.74 42.1108 1107.08 42.1108C1105.32 42.1108 1103.68 42.3842 1102.25 42.8629L1102.18 31.4273C1102.18 31.0513 1102.07 31 1101.7 31H1096.13ZM1113.08 55.3069C1113.08 61.2042 1109.05 63.9733 1104.69 63.9733C1103.78 63.9733 1102.98 63.922 1102.25 63.6998V48.1789C1103.08 47.8542 1104.09 47.5807 1105.95 47.5807C1110.16 47.5807 1113.08 50.2472 1113.08 55.3069Z" fill="#939393"/>
<path d="M1141.26 57.2215C1143.86 57.2215 1145.99 57.1702 1146.73 56.9992C1147 56.948 1147.1 56.8454 1147.16 56.6232C1147.31 56.042 1147.38 54.8284 1147.38 53.3412C1147.38 48.2816 1144.33 42.1108 1136.47 42.1108C1128.44 42.1108 1123.98 48.6576 1123.98 56.042C1123.98 62.5888 1127.43 69.392 1137.1 69.392C1140.73 69.392 1143.07 68.8108 1145.09 67.8536C1145.29 67.751 1145.39 67.5801 1145.39 67.2724V62.8452C1145.39 62.5888 1145.24 62.5375 1145.09 62.6401C1143.07 63.4948 1140.88 63.9221 1138.49 63.9221C1133.07 63.9221 1130.61 60.9307 1130.45 57.2215H1141.26ZM1130.45 52.6404C1130.88 50.0422 1132.52 47.2218 1136.2 47.2218C1140.25 47.2218 1141.31 50.6234 1141.31 52.1618C1141.31 52.2131 1141.31 52.4353 1141.31 52.5891C1141.09 52.6404 1140.4 52.6404 1138.39 52.6404H1130.45Z" fill="#939393"/>
<path d="M259.758 66.7963H241V69.4802H259.758V66.7963Z" fill="#939393"/>
<path d="M259.758 61.6998H241V64.3838H259.758V61.6998Z" fill="#939393"/>
<path d="M254.419 56.573H246.367V59.257H254.419V56.573Z" fill="#939393"/>
<path d="M254.419 51.4463H246.367V54.1303H254.419V51.4463Z" fill="#939393"/>
<path d="M254.419 46.3501H246.367V49.0341H254.419V46.3501Z" fill="#939393"/>
<path d="M254.419 41.2231H246.367V43.9071H254.419V41.2231Z" fill="#939393"/>
<path d="M259.758 36.0966H241V38.7805H259.758V36.0966Z" fill="#939393"/>
<path d="M259.758 31H241V33.684H259.758V31Z" fill="#939393"/>
<path d="M262.438 64.3837H291.056C291.539 63.5393 291.901 62.6346 292.142 61.6997H262.468V64.3837H262.438Z" fill="#939393"/>
<path d="M288.802 51.4463H267.812V54.1303H291.063C290.46 53.1351 289.706 52.2304 288.802 51.4463Z" fill="#939393"/>
<path d="M267.812 46.3501V49.0341H288.802C289.706 48.2801 290.46 47.3754 291.033 46.3501H267.812Z" fill="#939393"/>
<path d="M291.058 36.0964H262.469V38.7804H292.143C291.902 37.8455 291.54 36.9408 291.058 36.0964Z" fill="#939393"/>
<path d="M282.19 31H262.438V33.684H289.096C287.196 31.9349 284.723 31 282.19 31Z" fill="#939393"/>
<path d="M275.864 41.2231H267.812V43.9071H275.864V41.2231Z" fill="#939393"/>
<path d="M283.398 43.9071H292.053C292.295 43.0326 292.415 42.1279 292.415 41.2231H283.398V43.9071Z" fill="#939393"/>
<path d="M275.864 56.573H267.812V59.257H275.864V56.573Z" fill="#939393"/>
<path d="M283.398 56.573V59.257H292.415C292.415 58.3523 292.295 57.4475 292.053 56.573H283.398Z" fill="#939393"/>
<path d="M262.438 69.4802L282.19 69.5104C284.754 69.5104 287.226 68.5454 289.096 66.8264H262.438V69.4802Z" fill="#939393"/>
<path d="M316.06 69.4804L316.995 66.7964H315.125L316.06 69.4804Z" fill="#939393"/>
<path d="M314.278 64.3837H317.836L318.771 61.6997H313.312L314.278 64.3837Z" fill="#939393"/>
<path d="M312.474 59.257H319.651L320.586 56.573H311.539L312.474 59.257Z" fill="#939393"/>
<path d="M310.661 54.1303H321.427L322.392 51.4463H309.727L310.661 54.1303Z" fill="#939393"/>
<path d="M299.984 43.9071H314.46L313.525 41.2231H299.984V43.9071Z" fill="#939393"/>
<path d="M319.438 38.7804H337.501V36.0964H320.372L319.438 38.7804Z" fill="#939393"/>
<path d="M322.154 31L321.219 33.684H337.503V31H322.154Z" fill="#939393"/>
<path d="M308.007 66.7964H294.617V69.4804H308.007V66.7964Z" fill="#939393"/>
<path d="M308.007 61.6997H294.617V64.3837H308.007V61.6997Z" fill="#939393"/>
<path d="M308.036 56.573H299.984V59.257H308.036V56.573Z" fill="#939393"/>
<path d="M308.036 51.4463H299.984V54.1303H308.036V51.4463Z" fill="#939393"/>
<path d="M332.139 41.2231H318.599L317.664 43.9071H332.139V41.2231Z" fill="#939393"/>
<path d="M324.11 49.0341H332.132V46.3501H324.11H316.812L316.058 48.5214L315.304 46.3501H308.006H299.984V49.0341H308.006V46.5612L308.881 49.0341H323.235L324.11 46.5612V49.0341Z" fill="#939393"/>
<path d="M332.161 51.4463H324.109V54.1303H332.161V51.4463Z" fill="#939393"/>
<path d="M332.161 56.573H324.109V59.257H332.161V56.573Z" fill="#939393"/>
<path d="M337.499 61.6997H324.109V64.3837H337.499V61.6997Z" fill="#939393"/>
<path d="M337.499 66.7964H324.109V69.4804H337.499V66.7964Z" fill="#939393"/>
<path d="M312.681 38.7804L311.746 36.0964H294.617V38.7804H312.681Z" fill="#939393"/>
<path d="M310.902 33.684L309.967 31H294.617V33.684H310.902Z" fill="#939393"/>
<path d="M1247.76 66.7963H1229V69.4802H1247.76V66.7963Z" fill="#939393"/>
<path d="M1247.76 61.6998H1229V64.3838H1247.76V61.6998Z" fill="#939393"/>
<path d="M1242.42 56.573H1234.37V59.257H1242.42V56.573Z" fill="#939393"/>
<path d="M1242.42 51.4463H1234.37V54.1303H1242.42V51.4463Z" fill="#939393"/>
<path d="M1242.42 46.3501H1234.37V49.0341H1242.42V46.3501Z" fill="#939393"/>
<path d="M1242.42 41.2231H1234.37V43.9071H1242.42V41.2231Z" fill="#939393"/>
<path d="M1247.76 36.0966H1229V38.7805H1247.76V36.0966Z" fill="#939393"/>
<path d="M1247.76 31H1229V33.684H1247.76V31Z" fill="#939393"/>
<path d="M1250.44 64.3837H1279.06C1279.54 63.5393 1279.9 62.6346 1280.14 61.6997H1250.47V64.3837H1250.44Z" fill="#939393"/>
<path d="M1276.8 51.4463H1255.81V54.1303H1279.06C1278.46 53.1351 1277.71 52.2304 1276.8 51.4463Z" fill="#939393"/>
<path d="M1255.81 46.3501V49.0341H1276.8C1277.71 48.2801 1278.46 47.3754 1279.03 46.3501H1255.81Z" fill="#939393"/>
<path d="M1279.06 36.0964H1250.47V38.7804H1280.14C1279.9 37.8455 1279.54 36.9408 1279.06 36.0964Z" fill="#939393"/>
<path d="M1270.19 31H1250.44V33.684H1277.1C1275.2 31.9349 1272.72 31 1270.19 31Z" fill="#939393"/>
<path d="M1263.86 41.2231H1255.81V43.9071H1263.86V41.2231Z" fill="#939393"/>
<path d="M1271.4 43.9071H1280.05C1280.29 43.0326 1280.42 42.1279 1280.42 41.2231H1271.4V43.9071Z" fill="#939393"/>
<path d="M1263.86 56.573H1255.81V59.257H1263.86V56.573Z" fill="#939393"/>
<path d="M1271.4 56.573V59.257H1280.42C1280.42 58.3523 1280.29 57.4475 1280.05 56.573H1271.4Z" fill="#939393"/>
<path d="M1250.44 69.4802L1270.19 69.5104C1272.75 69.5104 1275.23 68.5454 1277.1 66.8264H1250.44V69.4802Z" fill="#939393"/>
<path d="M1304.06 69.4804L1304.99 66.7964H1303.12L1304.06 69.4804Z" fill="#939393"/>
<path d="M1302.28 64.3837H1305.84L1306.77 61.6997H1301.31L1302.28 64.3837Z" fill="#939393"/>
<path d="M1300.47 59.257H1307.65L1308.59 56.573H1299.54L1300.47 59.257Z" fill="#939393"/>
<path d="M1298.66 54.1303H1309.43L1310.39 51.4463H1297.73L1298.66 54.1303Z" fill="#939393"/>
<path d="M1287.98 43.9071H1302.46L1301.52 41.2231H1287.98V43.9071Z" fill="#939393"/>
<path d="M1307.44 38.7804H1325.5V36.0964H1308.37L1307.44 38.7804Z" fill="#939393"/>
<path d="M1310.15 31L1309.22 33.684H1325.5V31H1310.15Z" fill="#939393"/>
<path d="M1296.01 66.7964H1282.62V69.4804H1296.01V66.7964Z" fill="#939393"/>
<path d="M1296.01 61.6997H1282.62V64.3837H1296.01V61.6997Z" fill="#939393"/>
<path d="M1296.04 56.573H1287.98V59.257H1296.04V56.573Z" fill="#939393"/>
<path d="M1296.04 51.4463H1287.98V54.1303H1296.04V51.4463Z" fill="#939393"/>
<path d="M1320.14 41.2231H1306.6L1305.66 43.9071H1320.14V41.2231Z" fill="#939393"/>
<path d="M1312.11 49.0341H1320.13V46.3501H1312.11H1304.81L1304.06 48.5214L1303.3 46.3501H1296.01H1287.98V49.0341H1296.01V46.5612L1296.88 49.0341H1311.24L1312.11 46.5612V49.0341Z" fill="#939393"/>
<path d="M1320.16 51.4463H1312.11V54.1303H1320.16V51.4463Z" fill="#939393"/>
<path d="M1320.16 56.573H1312.11V59.257H1320.16V56.573Z" fill="#939393"/>
<path d="M1325.5 61.6997H1312.11V64.3837H1325.5V61.6997Z" fill="#939393"/>
<path d="M1325.5 66.7964H1312.11V69.4804H1325.5V66.7964Z" fill="#939393"/>
<path d="M1300.68 38.7804L1299.75 36.0964H1282.62V38.7804H1300.68Z" fill="#939393"/>
<path d="M1298.9 33.684L1297.97 31H1282.62V33.684H1298.9Z" fill="#939393"/>
</g>
<defs>
<clipPath id="clip0_3521_2">
<rect width="1920" height="100" fill="white"/>
</clipPath>
</defs>
</svg>
