<svg width="245" height="50" viewBox="0 0 245 50" fill="none" xmlns="http://www.w3.org/2000/svg">
<path d="M3.03999 37.24V15.04C3.03999 12.12 4.55999 11.2 6.87999 11.2H16.92C22.44 11.2 26.88 13.92 26.88 20.32C26.88 25.56 23.24 29.44 16.88 29.44H9.59999V37.24C9.59999 39.2 8.31999 40.52 6.31999 40.52C4.31999 40.52 3.03999 39.2 3.03999 37.24ZM9.59999 16.24V24.4H15.72C18.36 24.4 20.32 22.8 20.32 20.32C20.32 17.44 18.28 16.24 15.04 16.24H9.59999ZM29.9241 25.24C29.9241 16.8 35.0441 10.52 44.4841 10.52C53.9241 10.52 59.0441 16.8 59.0441 25.24C59.0441 33.36 54.3241 40.68 44.4841 40.68C34.1641 40.68 29.9241 33.96 29.9241 25.24ZM36.4841 25.24C36.4841 30.76 38.3241 35.4 44.4841 35.4C50.4441 35.4 52.4841 30.76 52.4841 25.24C52.4841 19.72 49.8441 15.8 44.4841 15.8C39.1241 15.8 36.4841 19.72 36.4841 25.24ZM63.8603 37.24V15.04C63.8603 12.12 65.3803 11.2 67.7003 11.2H78.6203C86.4203 11.2 88.5003 15.48 88.5003 19.2C88.5003 22.32 86.6603 25.4 83.5403 26.12V26.2C86.9003 26.68 87.5003 29.12 87.5003 32.04C87.5003 35.36 88.3803 36.6 88.3803 37.96C88.3803 39.48 86.8203 40.52 85.3003 40.52C81.7003 40.52 81.4203 37.04 81.4203 35.88C81.4203 30.84 80.5003 28.8 76.9003 28.8H70.4203V37.24C70.4203 39.2 69.1403 40.52 67.1403 40.52C65.1403 40.52 63.8603 39.2 63.8603 37.24ZM70.4203 16.24V24H76.9803C79.4603 24 81.9403 23.36 81.9403 20.12C81.9403 17.04 80.0603 16.24 77.1803 16.24H70.4203ZM99.8456 37.24V16.72H93.6456C91.7656 16.72 90.2456 15.76 90.2456 13.96C90.2456 12.16 91.7656 11.2 93.6456 11.2H112.606C114.486 11.2 116.006 12.16 116.006 13.96C116.006 15.76 114.486 16.72 112.606 16.72H106.406V37.24C106.406 39.2 105.126 40.52 103.126 40.52C101.126 40.52 99.8456 39.2 99.8456 37.24ZM119.684 37.24V15.04C119.684 12.12 121.204 11.2 123.524 11.2H137.964C139.884 11.2 141.284 11.76 141.284 13.84C141.284 15.92 139.884 16.48 137.964 16.48H126.244V23.2H136.164C137.884 23.2 139.244 23.68 139.244 25.72C139.244 27.76 137.884 28.24 136.164 28.24H126.244V37.24C126.244 39.2 124.964 40.52 122.964 40.52C120.964 40.52 119.684 39.2 119.684 37.24ZM143.44 25.24C143.44 16.8 148.56 10.52 158 10.52C167.44 10.52 172.56 16.8 172.56 25.24C172.56 33.36 167.84 40.68 158 40.68C147.68 40.68 143.44 33.96 143.44 25.24ZM150 25.24C150 30.76 151.84 35.4 158 35.4C163.96 35.4 166 30.76 166 25.24C166 19.72 163.36 15.8 158 15.8C152.64 15.8 150 19.72 150 25.24ZM177.376 36.16V13.96C177.376 12 178.656 10.68 180.656 10.68C182.656 10.68 183.936 12 183.936 13.96V34.48H194.896C196.776 34.48 198.296 35.44 198.296 37.24C198.296 39.04 196.776 40 194.896 40H181.216C178.896 40 177.376 39.08 177.376 36.16ZM201.829 37.24V13.96C201.829 12 203.109 10.68 205.109 10.68C207.109 10.68 208.389 12 208.389 13.96V37.24C208.389 39.2 207.109 40.52 205.109 40.52C203.109 40.52 201.829 39.2 201.829 37.24ZM213.205 25.24C213.205 16.8 218.325 10.52 227.765 10.52C237.205 10.52 242.325 16.8 242.325 25.24C242.325 33.36 237.605 40.68 227.765 40.68C217.445 40.68 213.205 33.96 213.205 25.24ZM219.765 25.24C219.765 30.76 221.605 35.4 227.765 35.4C233.725 35.4 235.765 30.76 235.765 25.24C235.765 19.72 233.125 15.8 227.765 15.8C222.405 15.8 219.765 19.72 219.765 25.24Z" fill="#A6A001"/>
</svg>
