<svg width="83" height="372" viewBox="0 0 83 372" fill="none" xmlns="http://www.w3.org/2000/svg">
<g opacity="0.1" filter="url(#filter0_d_1_28)">
<path d="M61.4702 363.011H25.0348C20.2424 363.011 18.7325 360.516 18.7325 356.708V340.23C18.7325 331.171 23.1966 323.884 33.7005 323.884C42.3006 323.884 48.6686 329.858 48.6686 340.296V352.244H61.4702C64.687 352.244 66.8534 354.345 66.8534 357.627C66.8534 360.91 64.687 363.011 61.4702 363.011ZM27.0043 352.244H40.3968V342.2C40.3968 337.867 37.7708 334.65 33.7005 334.65C28.9738 334.65 27.0043 337.998 27.0043 343.316V352.244ZM61.4702 316.787H25.0348C20.2424 316.787 18.7325 314.292 18.7325 310.485V292.562C18.7325 279.761 25.757 276.347 31.8623 276.347C36.983 276.347 42.038 279.367 43.2197 284.487H43.351C44.1388 278.973 48.1434 277.988 52.9358 277.988C58.3847 277.988 60.4198 276.544 62.6519 276.544C65.1466 276.544 66.8534 279.104 66.8534 281.599C66.8534 287.507 61.142 287.967 59.2381 287.967C50.9663 287.967 47.6182 289.477 47.6182 295.385V306.02H61.4702C64.687 306.02 66.8534 308.121 66.8534 311.404C66.8534 314.686 64.687 316.787 61.4702 316.787ZM27.0043 306.02H39.7403V295.254C39.7403 291.184 38.6899 287.113 33.3723 287.113C28.3173 287.113 27.0043 290.199 27.0043 294.926V306.02ZM41.7754 270.228C27.9234 270.228 17.6164 261.825 17.6164 246.331C17.6164 230.838 27.9234 222.435 41.7754 222.435C55.1022 222.435 67.116 230.182 67.116 246.331C67.116 263.269 56.087 270.228 41.7754 270.228ZM41.7754 259.461C50.835 259.461 58.4503 256.441 58.4503 246.331C58.4503 236.55 50.835 233.201 41.7754 233.201C32.7158 233.201 26.2822 237.534 26.2822 246.331C26.2822 255.128 32.7158 259.461 41.7754 259.461ZM23.2623 186.826H51.2289C61.142 186.826 67.116 192.341 67.116 202.976C67.116 215.909 58.516 218.338 53.8549 218.338C49.8503 218.338 47.2899 216.5 47.2899 213.217C47.2899 209.344 50.3098 208.359 53.5266 208.359C56.6121 208.359 58.8442 206.915 58.8442 203.107C58.8442 199.562 56.2183 197.593 51.0976 197.593H23.2623C20.0455 197.593 17.879 195.492 17.879 192.21C17.879 188.927 20.0455 186.826 23.2623 186.826ZM59.6977 176.571H25.0348C20.2424 176.571 18.7325 174.076 18.7325 170.268L18.7325 144.993C18.7325 141.842 19.6516 139.544 23.0653 139.544C26.4791 139.544 27.3982 141.842 27.3982 144.993L27.3982 165.804H37.6395V147.554C37.6395 144.731 38.4273 142.499 41.7754 142.499C45.1235 142.499 45.9113 144.731 45.9113 147.554V165.804H57.3343V144.468C57.3343 141.317 58.2534 139.019 61.6671 139.019C65.0809 139.019 66 141.317 66 144.468V170.268C66 174.076 64.4901 176.571 59.6977 176.571ZM42.3662 133.402C29.0394 133.402 17.6164 125.524 17.6164 110.293C17.6164 97.951 25.3631 91.1891 29.9585 91.1891C32.9784 91.1891 34.8166 92.8303 34.8166 96.0472C34.8166 102.284 26.2822 100.446 26.2822 110.293C26.2822 117.055 32.1249 122.635 42.3662 122.635C50.9663 122.635 58.4503 119.221 58.4503 109.899C58.4503 101.43 49.3907 101.627 49.3907 96.4411C49.3907 93.8151 50.9007 91.1891 53.5266 91.1891C60.3542 91.1891 67.116 99.4609 67.116 109.899C67.116 124.67 58.6473 133.402 42.3662 133.402ZM61.4702 72.9596H27.7921V83.1353C27.7921 86.2208 26.2165 88.7155 23.2623 88.7155C20.3081 88.7155 18.7325 86.2208 18.7325 83.1353V52.0175C18.7325 48.932 20.3081 46.4373 23.2623 46.4373C26.2165 46.4373 27.7921 48.932 27.7921 52.0175V62.1931H61.4702C64.687 62.1931 66.8534 64.2939 66.8534 67.5764C66.8534 70.8589 64.687 72.9596 61.4702 72.9596ZM36.5891 24.9064L38.6242 15.9124C40.8563 6.06504 46.6991 3.57036 52.2136 3.57036C60.7481 3.57036 67.116 10.004 67.116 23.0026C67.116 36.6576 60.2885 42.763 55.1679 42.763C52.5419 42.763 50.7037 40.8592 50.7037 38.2332C50.7037 32.3904 59.2381 33.9004 59.2381 23.0026C59.2381 17.4224 56.1526 14.3369 53.0014 14.3369C51.0976 14.3369 48.9968 15.2559 48.0777 18.9323L44.9922 31.0774C42.4975 40.8592 37.1143 42.6317 32.0593 42.6317C21.5554 42.6317 17.6164 32.9156 17.6164 23.7904C17.6164 15.3872 22.3432 5.47419 28.6455 5.47419C31.3372 5.47419 32.9127 7.77192 32.9127 10.3979C32.9127 15.3872 25.8883 14.4682 25.8883 24.5125C25.8883 29.5018 28.186 32.2591 31.4685 32.2591C34.7509 32.2591 35.8013 28.3202 36.5891 24.9064Z" fill="white"/>
</g>
<defs>
<filter id="filter0_d_1_28" x="13.6165" y="3.57037" width="57.4996" height="367.44" filterUnits="userSpaceOnUse" color-interpolation-filters="sRGB">
<feFlood flood-opacity="0" result="BackgroundImageFix"/>
<feColorMatrix in="SourceAlpha" type="matrix" values="0 0 0 0 0 0 0 0 0 0 0 0 0 0 0 0 0 0 127 0" result="hardAlpha"/>
<feOffset dy="4"/>
<feGaussianBlur stdDeviation="2"/>
<feComposite in2="hardAlpha" operator="out"/>
<feColorMatrix type="matrix" values="0 0 0 0 0 0 0 0 0 0 0 0 0 0 0 0 0 0 0.25 0"/>
<feBlend mode="normal" in2="BackgroundImageFix" result="effect1_dropShadow_1_28"/>
<feBlend mode="normal" in="SourceGraphic" in2="effect1_dropShadow_1_28" result="shape"/>
</filter>
</defs>
</svg>
