<svg width="188" height="50" viewBox="0 0 188 50" fill="none" xmlns="http://www.w3.org/2000/svg">
<path d="M3.04 37.24V15.04C3.04 12.12 4.56 11.2 6.88 11.2H17.8C25.6 11.2 27.68 15.48 27.68 19.2C27.68 22.32 25.84 25.4 22.72 26.12V26.2C26.08 26.68 26.68 29.12 26.68 32.04C26.68 35.36 27.56 36.6 27.56 37.96C27.56 39.48 26 40.52 24.48 40.52C20.88 40.52 20.6 37.04 20.6 35.88C20.6 30.84 19.68 28.8 16.08 28.8H9.6V37.24C9.6 39.2 8.32 40.52 6.32 40.52C4.32 40.52 3.04 39.2 3.04 37.24ZM9.6 16.24V24H16.16C18.64 24 21.12 23.36 21.12 20.12C21.12 17.04 19.24 16.24 16.36 16.24H9.6ZM32.8484 36.16V15.04C32.8484 12.12 34.3684 11.2 36.6884 11.2H52.0884C54.0084 11.2 55.4084 11.76 55.4084 13.84C55.4084 15.92 54.0084 16.48 52.0884 16.48H39.4084V22.72H50.5284C52.2484 22.72 53.6084 23.2 53.6084 25.24C53.6084 27.28 52.2484 27.76 50.5284 27.76H39.4084V34.72H52.4084C54.3284 34.72 55.7284 35.28 55.7284 37.36C55.7284 39.44 54.3284 40 52.4084 40H36.6884C34.3684 40 32.8484 39.08 32.8484 36.16ZM82.1913 15.52L73.8713 38.24C73.1913 40.12 71.9113 40.52 69.8713 40.52C67.8313 40.52 66.5513 40.12 65.8713 38.24L57.7913 15.52C57.5113 14.76 57.3913 14.12 57.3913 13.6C57.3913 11.4 59.0713 10.68 60.7113 10.68C62.4713 10.68 63.4313 11.6 64.0313 13.56L69.9513 33.16H70.0313L76.1913 13.56C76.7913 11.6 77.7513 10.68 79.2713 10.68C80.9113 10.68 82.5913 11.4 82.5913 13.6C82.5913 14.12 82.4713 14.76 82.1913 15.52ZM86.0088 37.24V13.96C86.0088 12 87.2888 10.68 89.2888 10.68C91.2888 10.68 92.5688 12 92.5688 13.96V37.24C92.5688 39.2 91.2888 40.52 89.2888 40.52C87.2888 40.52 86.0088 39.2 86.0088 37.24ZM98.825 36.16V15.04C98.825 12.12 100.345 11.2 102.665 11.2H118.065C119.985 11.2 121.385 11.76 121.385 13.84C121.385 15.92 119.985 16.48 118.065 16.48H105.385V22.72H116.505C118.225 22.72 119.585 23.2 119.585 25.24C119.585 27.28 118.225 27.76 116.505 27.76H105.385V34.72H118.385C120.305 34.72 121.705 35.28 121.705 37.36C121.705 39.44 120.305 40 118.385 40H102.665C100.345 40 98.825 39.08 98.825 36.16ZM159.368 15.52L153.728 37.4C153.128 39.68 152.168 40.52 149.768 40.52C147.288 40.52 146.408 39.48 145.848 37.28L141.568 19.72H141.488L137.208 37.28C136.688 39.48 135.768 40.52 133.288 40.52C130.888 40.52 129.928 39.68 129.328 37.4L123.688 15.52C123.528 14.92 123.368 14.28 123.368 13.64C123.368 11.64 125.008 10.68 126.528 10.68C128.208 10.68 129.208 11.44 129.608 13.36L133.488 32.48H133.568L138.048 13.12C138.408 11.52 139.048 10.68 141.488 10.68C144.248 10.68 144.808 12 145.208 13.8L149.568 32.48H149.648L153.568 13.36C153.968 11.44 154.968 10.68 156.528 10.68C158.048 10.68 159.688 11.64 159.688 13.64C159.688 14.28 159.528 14.92 159.368 15.52ZM172.679 22.08L178.159 23.32C184.159 24.68 185.679 28.24 185.679 31.6C185.679 36.8 181.759 40.68 173.839 40.68C165.519 40.68 161.799 36.52 161.799 33.4C161.799 31.8 162.959 30.68 164.559 30.68C168.119 30.68 167.199 35.88 173.839 35.88C177.239 35.88 179.119 34 179.119 32.08C179.119 30.92 178.559 29.64 176.319 29.08L168.919 27.2C162.959 25.68 161.879 22.4 161.879 19.32C161.879 12.92 167.799 10.52 173.359 10.52C178.479 10.52 184.519 13.4 184.519 17.24C184.519 18.88 183.119 19.84 181.519 19.84C178.479 19.84 179.039 15.56 172.919 15.56C169.879 15.56 168.199 16.96 168.199 18.96C168.199 20.96 170.599 21.6 172.679 22.08Z" fill="#A6A001"/>
</svg>
