<svg width="83" height="340" viewBox="0 0 83 340" fill="none" xmlns="http://www.w3.org/2000/svg">
<g opacity="0.1">
<path d="M36.5891 319.255L38.6242 310.261C40.8563 300.413 46.6991 297.919 52.2136 297.919C60.7481 297.919 67.116 304.352 67.116 317.351C67.116 331.006 60.2885 337.111 55.1679 337.111C52.5419 337.111 50.7037 335.208 50.7037 332.582C50.7037 326.739 59.2381 328.249 59.2381 317.351C59.2381 311.771 56.1526 308.685 53.0014 308.685C51.0976 308.685 48.9968 309.604 48.0777 313.281L44.9922 325.426C42.4975 335.208 37.1143 336.98 32.0593 336.98C21.5554 336.98 17.6164 327.264 17.6164 318.139C17.6164 309.736 22.3432 299.823 28.6455 299.823C31.3372 299.823 32.9127 302.12 32.9127 304.746C32.9127 309.736 25.8883 308.817 25.8883 318.861C25.8883 323.85 28.186 326.608 31.4685 326.608C34.7509 326.608 35.8013 322.669 36.5891 319.255ZM59.6977 289.806H25.0348C20.2424 289.806 18.7325 287.312 18.7325 283.504V258.229C18.7325 255.078 19.6516 252.78 23.0653 252.78C26.4791 252.78 27.3982 255.078 27.3982 258.229V279.04H37.6395V260.789C37.6395 257.967 38.4273 255.734 41.7754 255.734C45.1235 255.734 45.9113 257.967 45.9113 260.789V279.04H57.3343V257.704C57.3343 254.553 58.2534 252.255 61.6671 252.255C65.0809 252.255 66 254.553 66 257.704V283.504C66 287.312 64.4901 289.806 59.6977 289.806ZM61.4702 245.127H25.0348C20.2424 245.127 18.7325 242.633 18.7325 238.825V220.903C18.7325 208.101 25.757 204.688 31.8623 204.688C36.983 204.688 42.038 207.707 43.2197 212.828H43.351C44.1388 207.313 48.1434 206.329 52.9358 206.329C58.3847 206.329 60.4198 204.884 62.6519 204.884C65.1466 204.884 66.8534 207.445 66.8534 209.939C66.8534 215.848 61.142 216.307 59.2381 216.307C50.9663 216.307 47.6182 217.817 47.6182 223.726V234.361H61.4702C64.687 234.361 66.8534 236.462 66.8534 239.744C66.8534 243.027 64.687 245.127 61.4702 245.127ZM27.0043 234.361H39.7403V223.595C39.7403 219.524 38.6899 215.454 33.3723 215.454C28.3173 215.454 27.0043 218.54 27.0043 223.266V234.361ZM25.8226 160.163L63.1114 173.818C66.1969 174.935 66.8534 177.035 66.8534 180.383C66.8534 183.732 66.1969 185.832 63.1114 186.948L25.8226 200.21C24.5753 200.669 23.5249 200.866 22.6714 200.866C19.0607 200.866 17.879 198.109 17.879 195.417C17.879 192.529 19.389 190.953 22.6058 189.968L54.774 180.252V180.121L22.6058 170.011C19.389 169.026 17.879 167.45 17.879 164.956C17.879 162.264 19.0607 159.507 22.6714 159.507C23.5249 159.507 24.5753 159.704 25.8226 160.163ZM61.4702 153.898H23.2623C20.0455 153.898 17.879 151.797 17.879 148.515C17.879 145.232 20.0455 143.132 23.2623 143.132H61.4702C64.687 143.132 66.8534 145.232 66.8534 148.515C66.8534 151.797 64.687 153.898 61.4702 153.898ZM42.3662 134.636C29.0394 134.636 17.6164 126.758 17.6164 111.528C17.6164 99.1855 25.3631 92.4236 29.9585 92.4236C32.9784 92.4236 34.8166 94.0648 34.8166 97.2816C34.8166 103.518 26.2822 101.68 26.2822 111.528C26.2822 118.289 32.1249 123.87 42.3662 123.87C50.9663 123.87 58.4503 120.456 58.4503 111.134C58.4503 102.665 49.3907 102.862 49.3907 97.6755C49.3907 95.0496 50.9007 92.4236 53.5266 92.4236C60.3542 92.4236 67.116 100.695 67.116 111.134C67.116 125.905 58.6473 134.636 42.3662 134.636ZM59.6977 85.4858H25.0348C20.2424 85.4858 18.7325 82.9911 18.7325 79.1835V53.9085C18.7325 50.7573 19.6516 48.4596 23.0653 48.4596C26.4791 48.4596 27.3982 50.7573 27.3982 53.9085V74.7193H37.6395V56.4688C37.6395 53.6459 38.4273 51.4138 41.7754 51.4138C45.1235 51.4138 45.9113 53.6459 45.9113 56.4688V74.7193H57.3343V53.3833C57.3343 50.2321 58.2534 47.9344 61.6671 47.9344C65.0809 47.9344 66 50.2321 66 53.3833V79.1835C66 82.9911 64.4901 85.4858 59.6977 85.4858ZM36.5891 25.051L38.6242 16.057C40.8563 6.20965 46.6991 3.71497 52.2136 3.71497C60.7481 3.71497 67.116 10.1486 67.116 23.1471C67.116 36.8022 60.2885 42.9076 55.1679 42.9076C52.5419 42.9076 50.7037 41.0037 50.7037 38.3778C50.7037 32.535 59.2381 34.0449 59.2381 23.1471C59.2381 17.5669 56.1526 14.4814 53.0014 14.4814C51.0976 14.4814 48.9968 15.4005 48.0777 19.0769L44.9922 31.222C42.4975 41.0037 37.1143 42.7763 32.0593 42.7763C21.5554 42.7763 17.6164 33.0602 17.6164 23.9349C17.6164 15.5318 22.3432 5.6188 28.6455 5.6188C31.3372 5.6188 32.9127 7.91653 32.9127 10.5425C32.9127 15.5318 25.8883 14.6127 25.8883 24.6571C25.8883 29.6464 28.186 32.4037 31.4685 32.4037C34.7509 32.4037 35.8013 28.4647 36.5891 25.051Z" fill="white"/>
</g>
</svg>
