<svg width="104" height="42" viewBox="0 0 104 42" fill="none" xmlns="http://www.w3.org/2000/svg">
<path d="M21 42C32.598 42 42 32.598 42 21C42 9.40202 32.598 0 21 0C9.40202 0 0 9.40202 0 21C0 32.598 9.40202 42 21 42Z" fill="#A6A001"/>
<path d="M15.63 23.13H17.628C17.676 23.574 17.85 23.976 18.15 24.336C18.462 24.684 18.87 24.96 19.374 25.164C19.89 25.356 20.478 25.452 21.138 25.452C21.726 25.452 22.212 25.38 22.596 25.236C22.98 25.092 23.262 24.894 23.442 24.642C23.634 24.378 23.73 24.072 23.73 23.724C23.73 23.376 23.616 23.106 23.388 22.914C23.172 22.71 22.836 22.542 22.38 22.41C21.924 22.266 21.342 22.128 20.634 21.996C20.046 21.888 19.476 21.744 18.924 21.564C18.372 21.384 17.874 21.156 17.43 20.88C16.998 20.604 16.656 20.268 16.404 19.872C16.152 19.464 16.026 18.984 16.026 18.432C16.026 17.808 16.2 17.244 16.548 16.74C16.908 16.236 17.436 15.84 18.132 15.552C18.828 15.264 19.674 15.12 20.67 15.12C22.194 15.12 23.358 15.474 24.162 16.182C24.966 16.878 25.356 17.826 25.332 19.026H23.37C23.334 18.27 23.058 17.724 22.542 17.388C22.026 17.052 21.372 16.884 20.58 16.884C19.872 16.884 19.278 17.01 18.798 17.262C18.318 17.514 18.078 17.922 18.078 18.486C18.078 18.726 18.132 18.936 18.24 19.116C18.36 19.284 18.552 19.44 18.816 19.584C19.08 19.716 19.44 19.848 19.896 19.98C20.364 20.1 20.934 20.232 21.606 20.376C22.182 20.472 22.722 20.604 23.226 20.772C23.73 20.94 24.168 21.15 24.54 21.402C24.924 21.654 25.224 21.978 25.44 22.374C25.656 22.77 25.764 23.256 25.764 23.832C25.764 24.492 25.596 25.08 25.26 25.596C24.924 26.1 24.408 26.502 23.712 26.802C23.028 27.09 22.14 27.234 21.048 27.234C20.22 27.234 19.494 27.138 18.87 26.946C18.258 26.742 17.736 26.484 17.304 26.172C16.872 25.848 16.524 25.5 16.26 25.128C16.008 24.756 15.828 24.396 15.72 24.048C15.624 23.688 15.594 23.382 15.63 23.13ZM29.9345 14.238V16.164H27.5405V14.238H29.9345ZM27.7205 18.036H29.7365V27H27.7205V18.036ZM36.1257 25.614C35.2857 25.614 34.5237 25.464 33.8397 25.164C33.1677 24.864 32.6337 24.426 32.2377 23.85C31.8537 23.274 31.6617 22.584 31.6617 21.78C31.6617 20.976 31.8477 20.28 32.2197 19.692C32.6037 19.104 33.1317 18.648 33.8037 18.324C34.4877 18 35.2617 17.838 36.1257 17.838C36.3777 17.838 36.6177 17.856 36.8457 17.892C37.0857 17.928 37.3137 17.976 37.5297 18.036L41.7237 18.054V19.728C41.1477 19.74 40.5657 19.662 39.9777 19.494C39.4017 19.314 38.8917 19.128 38.4477 18.936L38.3937 18.828C38.8017 19.032 39.1677 19.284 39.4917 19.584C39.8277 19.872 40.0917 20.202 40.2837 20.574C40.4757 20.946 40.5717 21.366 40.5717 21.834C40.5717 22.626 40.3797 23.304 39.9957 23.868C39.6237 24.432 39.1017 24.864 38.4297 25.164C37.7697 25.464 37.0017 25.614 36.1257 25.614ZM39.0057 30.654V30.24C39.0057 29.652 38.8317 29.238 38.4837 28.998C38.1357 28.758 37.6497 28.638 37.0257 28.638H34.5957C34.1157 28.638 33.7017 28.596 33.3537 28.512C33.0177 28.44 32.7477 28.326 32.5437 28.17C32.3397 28.026 32.1897 27.852 32.0937 27.648C31.9977 27.456 31.9497 27.24 31.9497 27C31.9497 26.52 32.0937 26.16 32.3817 25.92C32.6817 25.68 33.0717 25.524 33.5517 25.452C34.0437 25.38 34.5597 25.368 35.0997 25.416L36.1257 25.614C35.4177 25.638 34.8777 25.704 34.5057 25.812C34.1457 25.908 33.9657 26.106 33.9657 26.406C33.9657 26.586 34.0377 26.73 34.1817 26.838C34.3257 26.946 34.5297 27 34.7937 27H37.3497C38.0817 27 38.7237 27.084 39.2757 27.252C39.8277 27.432 40.2537 27.726 40.5537 28.134C40.8657 28.554 41.0217 29.124 41.0217 29.844V30.654H39.0057ZM36.1257 24.048C36.6057 24.048 37.0317 23.958 37.4037 23.778C37.7757 23.598 38.0697 23.34 38.2857 23.004C38.5017 22.668 38.6097 22.26 38.6097 21.78C38.6097 21.3 38.5017 20.886 38.2857 20.538C38.0697 20.19 37.7757 19.926 37.4037 19.746C37.0317 19.566 36.6057 19.476 36.1257 19.476C35.6577 19.476 35.2317 19.566 34.8477 19.746C34.4757 19.926 34.1817 20.19 33.9657 20.538C33.7497 20.874 33.6417 21.288 33.6417 21.78C33.6417 22.26 33.7497 22.668 33.9657 23.004C34.1817 23.34 34.4757 23.598 34.8477 23.778C35.2197 23.958 35.6457 24.048 36.1257 24.048ZM43.3269 18.036H45.3249V27H43.3269V18.036ZM49.1049 17.838C49.6209 17.838 50.0949 17.91 50.5269 18.054C50.9709 18.198 51.3489 18.42 51.6609 18.72C51.9849 19.008 52.2309 19.368 52.3989 19.8C52.5789 20.232 52.6689 20.742 52.6689 21.33V27H50.6709V21.726C50.6709 20.994 50.4909 20.454 50.1309 20.106C49.7829 19.746 49.2309 19.566 48.4749 19.566C47.8989 19.566 47.3709 19.692 46.8909 19.944C46.4229 20.184 46.0389 20.502 45.7389 20.898C45.4389 21.282 45.2649 21.708 45.2169 22.176L45.1989 21.204C45.2589 20.76 45.3909 20.34 45.5949 19.944C45.7989 19.536 46.0689 19.176 46.4049 18.864C46.7409 18.54 47.1369 18.288 47.5929 18.108C48.0489 17.928 48.5529 17.838 49.1049 17.838ZM61.3642 14.238V16.164H58.9702V14.238H61.3642ZM59.1502 18.036H61.1662V27H59.1502V18.036ZM63.5594 18.036H65.5574V27H63.5594V18.036ZM69.3374 17.838C69.8534 17.838 70.3274 17.91 70.7594 18.054C71.2034 18.198 71.5814 18.42 71.8934 18.72C72.2174 19.008 72.4634 19.368 72.6314 19.8C72.8114 20.232 72.9014 20.742 72.9014 21.33V27H70.9034V21.726C70.9034 20.994 70.7234 20.454 70.3634 20.106C70.0154 19.746 69.4634 19.566 68.7074 19.566C68.1314 19.566 67.6034 19.692 67.1234 19.944C66.6554 20.184 66.2714 20.502 65.9714 20.898C65.6714 21.282 65.4974 21.708 65.4494 22.176L65.4314 21.204C65.4914 20.76 65.6234 20.34 65.8274 19.944C66.0314 19.536 66.3014 19.176 66.6374 18.864C66.9734 18.54 67.3694 18.288 67.8254 18.108C68.2814 17.928 68.7854 17.838 69.3374 17.838Z" fill="white"/>
<path fill-rule="evenodd" clip-rule="evenodd" d="M87.4986 14.8218L93.677 21.0001L87.4986 27.1784L86.3203 26.0001L91.3203 21.0001L86.3203 16.0001L87.4986 14.8218Z" fill="white"/>
</svg>
