<svg width="83" height="511" viewBox="0 0 83 511" fill="none" xmlns="http://www.w3.org/2000/svg">
<g opacity="0.1">
<path d="M61.4702 494.456H27.7921V504.632C27.7921 507.718 26.2165 510.212 23.2623 510.212C20.3081 510.212 18.7325 507.718 18.7325 504.632L18.7325 473.514C18.7325 470.429 20.3081 467.934 23.2623 467.934C26.2165 467.934 27.7921 470.429 27.7921 473.514L27.7921 483.69H61.4702C64.687 483.69 66.8534 485.791 66.8534 489.073C66.8534 492.356 64.687 494.456 61.4702 494.456ZM59.6977 461.896H25.0348C20.2424 461.896 18.7325 459.402 18.7325 455.594V430.319C18.7325 427.168 19.6516 424.87 23.0653 424.87C26.4791 424.87 27.3982 427.168 27.3982 430.319V451.13H37.6395V432.879C37.6395 430.056 38.4273 427.824 41.7754 427.824C45.1235 427.824 45.9113 430.056 45.9113 432.879V451.13H57.3343V429.794C57.3343 426.643 58.2534 424.345 61.6671 424.345C65.0809 424.345 66 426.643 66 429.794V455.594C66 459.402 64.4901 461.896 59.6977 461.896ZM36.5891 401.462L38.6242 392.468C40.8563 382.62 46.6991 380.126 52.2136 380.126C60.7481 380.126 67.116 386.559 67.116 399.558C67.116 413.213 60.2885 419.318 55.1679 419.318C52.5419 419.318 50.7037 417.414 50.7037 414.788C50.7037 408.946 59.2381 410.455 59.2381 399.558C59.2381 393.978 56.1526 390.892 53.0014 390.892C51.0976 390.892 48.9968 391.811 48.0777 395.487L44.9922 407.633C42.4975 417.414 37.1143 419.187 32.0593 419.187C21.5554 419.187 17.6164 409.471 17.6164 400.346C17.6164 391.942 22.3432 382.029 28.6455 382.029C31.3372 382.029 32.9127 384.327 32.9127 386.953C32.9127 391.942 25.8883 391.023 25.8883 401.068C25.8883 406.057 28.186 408.814 31.4685 408.814C34.7509 408.814 35.8013 404.875 36.5891 401.462ZM61.4702 360.722H27.7921L27.7921 370.897C27.7921 373.983 26.2165 376.477 23.2623 376.477C20.3081 376.477 18.7325 373.983 18.7325 370.897L18.7325 339.779C18.7325 336.694 20.3081 334.199 23.2623 334.199C26.2165 334.199 27.7921 336.694 27.7921 339.779V349.955H61.4702C64.687 349.955 66.8534 352.056 66.8534 355.338C66.8534 358.621 64.687 360.722 61.4702 360.722ZM61.4702 328.424H23.2623C20.0455 328.424 17.879 326.323 17.879 323.041C17.879 319.758 20.0455 317.658 23.2623 317.658H61.4702C64.687 317.658 66.8534 319.758 66.8534 323.041C66.8534 326.323 64.687 328.424 61.4702 328.424ZM61.6015 307.849H23.1966C18.8638 307.849 17.879 304.895 17.879 302.006V298.855C17.879 295.507 19.192 293.932 22.8027 292.816L53.1327 283.428V283.296L22.8027 274.04C19.192 272.924 17.879 271.348 17.879 268V264.98C17.879 262.092 18.8638 259.137 23.1966 259.137H61.6015C64.2931 259.137 66.8534 260.45 66.8534 263.93C66.8534 267.409 64.2931 268.722 61.6015 268.722H32.3219V268.853L63.7023 278.898C65.9344 279.62 66.8534 281.261 66.8534 283.493C66.8534 285.725 65.9344 287.367 63.7023 288.089L32.3219 298.133V298.264H61.6015C64.2931 298.264 66.8534 299.577 66.8534 303.057C66.8534 306.536 64.2931 307.849 61.6015 307.849ZM41.7754 251.476C27.9234 251.476 17.6164 243.073 17.6164 227.58C17.6164 212.087 27.9234 203.684 41.7754 203.684C55.1022 203.684 67.116 211.43 67.116 227.58C67.116 244.518 56.087 251.476 41.7754 251.476ZM41.7754 240.71C50.835 240.71 58.4503 237.69 58.4503 227.58C58.4503 217.798 50.835 214.45 41.7754 214.45C32.7158 214.45 26.2822 218.783 26.2822 227.58C26.2822 236.377 32.7158 240.71 41.7754 240.71ZM61.6671 195.976H24.1814C19.7172 195.976 17.879 193.81 17.879 189.214C17.879 186.982 18.7325 185.013 20.702 183.831L51.0976 164.99V164.858H23.0653C19.5859 164.858 17.879 162.889 17.879 159.672C17.879 156.455 19.5859 154.486 23.0653 154.486H60.1572C64.4244 154.486 66.8534 156.324 66.8534 160.854C66.8534 164.267 66.1313 165.384 63.9649 166.762L34.4227 185.472V185.603H61.6671C65.1466 185.603 66.8534 187.573 66.8534 190.79C66.8534 194.007 65.1466 195.976 61.6671 195.976ZM61.4702 144.683H23.2623C20.0455 144.683 17.879 142.582 17.879 139.3C17.879 136.017 20.0455 133.916 23.2623 133.916H61.4702C64.687 133.916 66.8534 136.017 66.8534 139.3C66.8534 142.582 64.687 144.683 61.4702 144.683ZM57.9908 127.259L21.1615 113.342C18.7325 112.422 17.879 110.716 17.879 108.09V105.529C17.879 103.1 18.4699 100.934 21.818 99.7521L57.9908 86.7536C59.0412 86.3597 60.945 85.7032 62.1267 85.7032C64.7527 85.7032 66.8534 88.0009 66.8534 90.7582C66.8534 93.1215 66 94.8284 63.8992 95.6162L56.0213 98.3735L56.0213 115.705L63.8992 118.528C66 119.25 66.8534 120.76 66.8534 123.32C66.8534 126.274 65.0153 128.31 62.1267 128.31C60.945 128.31 59.0412 127.653 57.9908 127.259ZM48.5373 100.737L29.5646 106.842V106.974L48.5373 113.342L48.5373 100.737ZM59.6977 80.1235H23.2623C20.0455 80.1235 17.879 78.0227 17.879 74.7403C17.879 71.4578 20.0455 69.357 23.2623 69.357H56.9404V51.3691C56.9404 48.2836 58.516 45.7889 61.4702 45.7889C64.4244 45.7889 66 48.2836 66 51.3691V73.8212C66 77.6288 64.4901 80.1235 59.6977 80.1235ZM36.5891 24.2344L38.6242 15.2404C40.8563 5.39301 46.6991 2.89834 52.2136 2.89834C60.7481 2.89834 67.116 9.33197 67.116 22.3305C67.116 35.9856 60.2885 42.091 55.1679 42.091C52.5419 42.091 50.7037 40.1872 50.7037 37.5612C50.7037 31.7184 59.2381 33.2283 59.2381 22.3305C59.2381 16.7503 56.1526 13.6648 53.0014 13.6648C51.0976 13.6648 48.9968 14.5839 48.0777 18.2603L44.9922 30.4054C42.4975 40.1872 37.1143 41.9597 32.0593 41.9597C21.5554 41.9597 17.6164 32.2436 17.6164 23.1183C17.6164 14.7152 22.3432 4.80216 28.6455 4.80216C31.3372 4.80216 32.9127 7.09989 32.9127 9.72587C32.9127 14.7152 25.8883 13.7961 25.8883 23.8405C25.8883 28.8298 28.186 31.5871 31.4685 31.5871C34.7509 31.5871 35.8013 27.6481 36.5891 24.2344Z" fill="white"/>
</g>
</svg>
