<svg width="105" height="42" viewBox="0 0 105 42" fill="none" xmlns="http://www.w3.org/2000/svg">
<path d="M21 42C32.598 42 42 32.598 42 21C42 9.40202 32.598 0 21 0C9.40202 0 0 9.40202 0 21C0 32.598 9.40202 42 21 42Z" fill="#A6A001"/>
<path d="M20.616 14.1479C21.756 14.1479 22.71 14.2559 23.478 14.4719C24.258 14.6759 24.84 15.0179 25.224 15.4979C25.62 15.9659 25.818 16.6019 25.818 17.4059C25.818 17.8859 25.74 18.3239 25.584 18.7199C25.428 19.1159 25.2 19.4399 24.9 19.6919C24.612 19.9439 24.258 20.1059 23.838 20.1779V20.2679C24.27 20.3519 24.66 20.5019 25.008 20.7179C25.356 20.9339 25.632 21.2459 25.836 21.6539C26.04 22.0619 26.142 22.6019 26.142 23.2739C26.142 24.0539 25.95 24.7259 25.566 25.2899C25.194 25.8419 24.654 26.2679 23.946 26.5679C23.238 26.8559 22.398 26.9999 21.426 26.9999H16.62V14.1479H20.616ZM20.922 19.2419C21.714 19.2419 22.26 19.1159 22.56 18.8639C22.872 18.6119 23.028 18.2459 23.028 17.7659C23.028 17.2739 22.848 16.9199 22.488 16.7039C22.128 16.4879 21.558 16.3799 20.778 16.3799H19.338V19.2419H20.922ZM19.338 21.4019V24.7499H21.12C21.936 24.7499 22.506 24.5939 22.83 24.2819C23.154 23.9579 23.316 23.5319 23.316 23.0039C23.316 22.6799 23.244 22.3979 23.1 22.1579C22.968 21.9179 22.734 21.7319 22.398 21.5999C22.062 21.4679 21.606 21.4019 21.03 21.4019H19.338ZM37.4258 22.0679C37.4258 22.8839 37.3118 23.6099 37.0838 24.2459C36.8678 24.8819 36.5498 25.4219 36.1298 25.8659C35.7218 26.2979 35.2238 26.6279 34.6358 26.8559C34.0478 27.0719 33.3818 27.1799 32.6378 27.1799C31.9538 27.1799 31.3178 27.0719 30.7298 26.8559C30.1538 26.6279 29.6558 26.2979 29.2358 25.8659C28.8158 25.4219 28.4858 24.8819 28.2458 24.2459C28.0178 23.6099 27.9038 22.8839 27.9038 22.0679C27.9038 20.9759 28.0958 20.0579 28.4798 19.3139C28.8638 18.5579 29.4158 17.9819 30.1358 17.5859C30.8558 17.1899 31.7078 16.9919 32.6918 16.9919C33.6158 16.9919 34.4318 17.1899 35.1398 17.5859C35.8478 17.9819 36.4058 18.5579 36.8138 19.3139C37.2218 20.0579 37.4258 20.9759 37.4258 22.0679ZM30.6398 22.0679C30.6398 22.7159 30.7058 23.2619 30.8378 23.7059C30.9818 24.1379 31.2038 24.4679 31.5038 24.6959C31.8038 24.9119 32.1938 25.0199 32.6738 25.0199C33.1538 25.0199 33.5378 24.9119 33.8258 24.6959C34.1258 24.4679 34.3418 24.1379 34.4738 23.7059C34.6178 23.2619 34.6898 22.7159 34.6898 22.0679C34.6898 21.4199 34.6178 20.8799 34.4738 20.4479C34.3418 20.0159 34.1258 19.6919 33.8258 19.4759C33.5258 19.2599 33.1358 19.1519 32.6558 19.1519C31.9478 19.1519 31.4318 19.3979 31.1078 19.8899C30.7958 20.3699 30.6398 21.0959 30.6398 22.0679ZM49.0563 12.9419C48.9963 13.5659 48.8223 14.1179 48.5343 14.5979C48.2463 15.0659 47.7963 15.4319 47.1843 15.6959C46.5723 15.9599 45.7503 16.0919 44.7183 16.0919C43.6623 16.0919 42.8343 15.9659 42.2343 15.7139C41.6463 15.4499 41.2263 15.0839 40.9743 14.6159C40.7223 14.1479 40.5723 13.5899 40.5243 12.9419H42.9183C42.9783 13.6019 43.1463 14.0399 43.4223 14.2559C43.6983 14.4719 44.1483 14.5799 44.7723 14.5799C45.2883 14.5799 45.7083 14.4659 46.0323 14.2379C46.3683 13.9979 46.5663 13.5659 46.6263 12.9419H49.0563ZM42.2343 21.0599C42.2343 21.2639 42.2223 21.5159 42.1983 21.8159C42.1863 22.1159 42.1683 22.4219 42.1443 22.7339C42.1323 23.0459 42.1143 23.3219 42.0903 23.5619C42.0663 23.8019 42.0483 23.9699 42.0363 24.0659L46.5723 17.1719H49.7943V26.9999H47.2023V23.0759C47.2023 22.7519 47.2143 22.3979 47.2383 22.0139C47.2623 21.6179 47.2863 21.2519 47.3103 20.9159C47.3463 20.5679 47.3703 20.3039 47.3823 20.1239L42.8643 26.9999H39.6423V17.1719H42.2343V21.0599ZM60.7334 19.1879H57.5114V26.9999H54.8294V19.1879H51.6074V17.1719H60.7334V19.1879ZM65.1386 21.0599C65.1386 21.2639 65.1266 21.5159 65.1026 21.8159C65.0906 22.1159 65.0726 22.4219 65.0486 22.7339C65.0366 23.0459 65.0186 23.3219 64.9946 23.5619C64.9706 23.8019 64.9526 23.9699 64.9406 24.0659L69.4766 17.1719H72.6986V26.9999H70.1066V23.0759C70.1066 22.7519 70.1186 22.3979 70.1426 22.0139C70.1666 21.6179 70.1906 21.2519 70.2146 20.9159C70.2506 20.5679 70.2746 20.3039 70.2866 20.1239L65.7686 26.9999H62.5466V17.1719H65.1386V21.0599Z" fill="white"/>
<path fill-rule="evenodd" clip-rule="evenodd" d="M88.4986 14.8218L94.677 21.0001L88.4986 27.1784L87.3203 26.0001L92.3203 21.0001L87.3203 16.0001L88.4986 14.8218Z" fill="white"/>
</svg>
